<svg width="34" height="34" viewBox="0 0 34 34" fill="none" xmlns="http://www.w3.org/2000/svg">
<path d="M29.0352 33.1621H5.12721C2.85131 33.1621 1 31.3101 1 29.0349V5.12721C1 2.85167 2.85131 1 5.12721 1H29.0352C31.3104 1 33.1621 2.85167 33.1621 5.12721V29.0349C33.1621 31.3104 31.3104 33.1621 29.0352 33.1621ZM5.12721 2.65081C3.7616 2.65081 2.65081 3.7616 2.65081 5.12721V29.0349C2.65081 30.3998 3.7616 31.5109 5.12721 31.5109H29.0352C30.3994 31.5109 31.5113 30.4002 31.5113 29.0349V5.12721C31.5113 3.7616 30.3998 2.65081 29.0352 2.65081H5.12721Z" fill="#A5CBE4" stroke="#A5CBE4"/>
<path d="M29.0349 33.162H13.6712C13.3374 33.162 13.0364 32.9604 12.9085 32.6523C12.7809 32.3436 12.8513 31.989 13.0872 31.7524L25.328 19.513C26.1075 18.7335 27.1443 18.304 28.2469 18.304C29.3491 18.304 30.3855 18.7328 31.1654 19.5123L32.9198 21.2675C33.075 21.4219 33.1618 21.6317 33.1618 21.8511V29.0351C33.1618 31.3103 31.3101 33.162 29.0349 33.162ZM15.6644 31.5108H29.0353C30.3995 31.5108 31.5113 30.4 31.5113 29.0348V22.1924L29.9978 20.6796C29.0635 19.7446 27.4317 19.7453 26.4967 20.6806L15.6644 31.5108Z" fill="#A5CBE4" stroke="#A5CBE4"/>
<path d="M29.0352 33.162H5.12721C2.85131 33.162 1 31.31 1 29.0348V26.0227C1 25.8036 1.0872 25.5942 1.24196 25.4394L12.1218 14.5599C12.9013 13.7804 13.9381 13.3508 15.0403 13.3508C16.1425 13.3508 17.179 13.7797 17.9581 14.5588L30.7997 27.4008C32.0603 28.6621 32.3601 30.5845 31.5452 32.186C31.4788 32.3161 31.3783 32.4269 31.255 32.5062C30.5849 32.9351 29.8169 33.162 29.0352 33.162ZM2.65081 26.3647V29.0352C2.65081 30.4001 3.7616 31.5112 5.12721 31.5112H29.0352C29.4266 31.5112 29.8144 31.4144 30.1678 31.2299C30.5356 30.3143 30.3326 29.2696 29.6314 28.5684L16.7901 15.7272C15.8555 14.7922 14.2244 14.7929 13.2894 15.7279L2.65081 26.3647Z" fill="#A5CBE4" stroke="#A5CBE4"/>
<path d="M24.1162 15.0024C21.3853 15.0024 19.1641 12.7808 19.1641 10.0496C19.1641 7.31874 21.3856 5.09717 24.1162 5.09717C26.8477 5.09717 29.069 7.31874 29.069 10.0496C29.0693 12.7805 26.8477 15.0024 24.1162 15.0024ZM24.1162 6.74762C22.2956 6.74762 20.8149 8.22832 20.8149 10.0493C20.8149 11.8702 22.2959 13.3512 24.1162 13.3512C25.9378 13.3512 27.4185 11.8702 27.4185 10.0493C27.4185 8.22832 25.9378 6.74762 24.1162 6.74762Z" fill="#A5CBE4" stroke="#A5CBE4"/>
</svg>
