<svg width="228" height="164" viewBox="0 0 228 164" fill="none" xmlns="http://www.w3.org/2000/svg">
<ellipse cx="126" cy="131.5" rx="102" ry="32.5" fill="#EEE9D5"/>
<path d="M128.524 118.819V124.381L157.091 136.263L205.883 129.184V125.139L176.81 112.752L128.524 118.819Z" fill="#FCB1B1"/>
<path d="M128.524 124.381V118.819L157.091 131.206V136.262L128.524 124.381Z" fill="#F9A2A2"/>
<path d="M205.883 125.139L157.091 131.206V136.262L205.883 129.184V125.139Z" fill="#F9A2A2"/>
<path d="M174.001 3.62503C174.001 5.19807 170.033 6.47327 165.139 6.47327C160.244 6.47327 156.523 5.19807 156.523 3.62503C156.523 2.05199 160.244 0 165.139 0C170.033 0 174.001 2.05199 174.001 3.62503Z" fill="#FCBFBF"/>
<mask id="mask0" mask-type="alpha" maskUnits="userSpaceOnUse" x="156" y="3" width="19" height="120">
<path d="M156.523 4.00764V120.76C163.613 124.803 171.129 122.444 174.001 120.76V3.88403C171.293 7.54549 158.492 6.78745 156.523 4.00764Z" fill="#F1CCB0"/>
</mask>
<g mask="url(#mask0)">
<path d="M156.523 4.00764V120.76C163.613 124.803 171.129 122.444 174.001 120.76V3.88403C171.293 7.54549 158.492 6.78745 156.523 4.00764Z" fill="#FFDBDB"/>
<rect x="168.175" y="3.23657" width="19.4198" height="127.523" fill="#FCBFBF"/>
</g>
<path d="M2.95073 119.518C0.639481 115.14 0.0206884 91.7049 0.000198636 80.5346C-0.0607248 74.8776 13.9079 66.9047 20.8998 63.6253C34.9148 56.2057 70.1614 42.953 99.0274 49.2986C135.11 57.2305 145.621 75.677 147.404 88.3436C148.83 98.4768 146.236 104.822 144.761 106.729C143.236 118.387 137.938 125.236 135.479 127.204C87.9629 155.796 55.753 151.184 46.7784 151.184C15.429 146.757 5.83979 124.991 2.95073 119.518Z" fill="#FFDBDB"/>
<path d="M13.5802 100.164C4.53183 93.1959 3.27375 84.876 3.06885 81.767C17.9446 61.9389 44.8069 58.469 59.6212 53.1568C74.4355 47.8446 102.035 52.7244 104.986 53.1568C107.937 53.5892 137.196 62.9164 142.79 79.1619C147.265 92.1582 144.655 102.531 142.79 106.093C140.823 108.955 131.59 115.853 110.395 120.548C83.9018 126.416 71.9767 122.648 71.1161 122.648C70.2555 122.648 58.023 117.891 55.933 116.594C53.843 115.297 34.48 110.788 33.7424 110.047C33.0047 109.305 19.9116 103.129 13.5802 100.164Z" fill="#FCC4C4"/>
<path d="M60.8315 78.1317C37.9768 78.7237 19.9611 89.8477 13.8101 95.3357L34.4088 105.633C39.8445 107.011 53.1315 110.85 62.7933 115.191C74.8705 120.617 75.7901 119.014 79.4071 119.014C128.084 114.883 134.889 102.304 135.011 101.564C135.134 100.824 134.705 95.3357 133.356 95.3357C132.007 95.3357 129.739 91.9442 120.543 82.0782C111.347 72.2121 99.0863 68.574 90.6261 66.7241C83.8579 65.2442 67.943 73.7126 60.8315 78.1317Z" fill="#FDB2B2"/>
</svg>
