<svg width="251" height="103" viewBox="0 0 251 103" fill="none" xmlns="http://www.w3.org/2000/svg">
<ellipse cx="129.076" cy="79.5316" rx="121.253" ry="23.4684" fill="#EEE9D5"/>
<path d="M0 69.7755C1.14441 67.0967 4.9851 65.3967 6.7624 64.8815C60.5148 64.3234 168.956 63.6194 172.701 65.2679C176.447 66.9164 177.99 68.6164 178.293 69.2603V81.6241C172.987 91.5152 126.231 94.7606 103.517 95.147C25.0729 95.7652 1.82065 86.7328 0 82.1393V69.7755Z" fill="#FCBFBF"/>
<path d="M5.06201 69.315L19.3734 23.714C19.394 23.5222 19.4519 23.3451 19.5394 23.1851L19.3734 23.714C19.1384 25.9032 23.7629 30.0023 44.5814 32.3851C72.884 35.6246 120.229 35.2359 138.358 31.7372C156.488 28.2386 156.096 26.9428 159.357 23.833L174.356 69.315C173.574 71.2155 167.551 75.8393 149.575 77.9967C122.752 81.2161 90.5882 85.6725 30.3648 77.9967C23.5826 77.2625 9.02699 74.4981 5.06201 69.315Z" fill="#FFDBDB"/>
<path d="M100.677 81.6423L102.75 34.1406C105.861 34.1406 129.448 32.8391 143.056 30.4966L151.998 77.7381L158.608 81.2519V89.9714C150.106 92.5742 121.283 94.7867 106.25 95.1771V85.8069L100.677 81.6423Z" fill="#FF9898" fill-opacity="0.33"/>
<path d="M24.2209 21.3257C24.2209 21.6724 24.306 21.9883 24.3768 22.3059C24.2519 22.398 24.0552 22.3287 24.0552 22.5001C24.0552 22.718 24.0648 22.9894 24.1564 23.1885C24.7296 24.4335 25.7172 25.1222 26.9873 25.6543C28.0987 26.1199 29.2306 26.6372 30.2693 27.2382C31.2248 27.7909 32.1121 28.4846 33.1141 28.957C35.0412 29.8658 37.258 30.1572 39.3144 30.6849C41.0254 31.1239 42.7665 30.9266 44.5113 30.8874C46.3298 30.8465 48.1348 30.7822 49.9522 30.7029C51.4818 30.6361 52.9992 30.5335 54.5322 30.5679C55.787 30.5961 56.8872 30.8756 58.095 31.1574C62.7195 32.2361 67.5587 32.395 72.2772 32.8087C75.2662 33.0708 78.2485 33.4541 81.2394 33.6771C83.8428 33.8712 86.4065 33.9606 89.0186 33.9606C91.786 33.9606 94.5435 33.8251 97.3088 33.7356C99.7487 33.6567 102.173 33.3873 104.609 33.2497C107.344 33.0952 110.062 32.6198 112.789 32.3407C115.372 32.0765 117.975 31.8267 120.545 31.4678C125.94 30.7145 131.347 30.4694 136.688 29.3215C140.086 28.5913 143.254 27.2414 146.516 26.1043C147.623 25.7182 148.767 25.4927 149.871 25.0919C150.529 24.8531 151.114 24.5901 151.736 24.2864C152.275 24.0228 152.908 23.7926 153.476 23.5935C154.024 23.4015 154.502 23.016 154.995 22.7206C155.106 22.6536 155.595 22.3562 155.625 22.2526C155.684 22.0527 154.806 21.4353 154.806 21.2254C154.806 19.7449 154.943 18.7605 154.806 17.285C154.717 16.3267 153.685 15.4303 152.933 14.9227C152.288 14.4884 151.596 14.1239 150.926 13.7303C150.375 13.4072 149.728 13.3198 149.14 13.0824C148.158 12.6864 147.259 12.6594 146.226 12.6594C145.559 12.6594 144.989 13.0842 144.279 13.0644C143.847 13.0524 143.403 12.5325 143.119 12.2545C142.675 11.821 142.165 11.4412 141.646 11.1026C140.967 10.66 140.343 10.1026 139.722 9.5862C139.343 9.27167 138.899 9.07319 138.483 8.81227C137.809 8.38853 136.894 7.84668 136.071 7.80436C134.687 7.73314 133.178 7.86899 131.952 8.54679C131.437 8.8312 130.859 9.03934 130.405 9.41972C129.966 9.78748 129.738 10.3853 129.245 10.7066C128.674 11.0787 127.32 9.63395 126.833 9.33873C125.809 8.71751 124.762 8.5025 123.565 8.67278C122.82 8.77864 121.959 9.1752 121.208 8.96976C120.597 8.80247 120.334 8.39286 119.836 8.02484C118.188 6.80589 116.248 5.7326 114.101 6.162C113.743 6.23345 112.227 6.615 112.048 6.22049C111.795 5.66529 111.118 5.15135 110.741 4.67712C110.504 4.37955 110.129 4.20031 109.797 4.02468C109.169 3.69241 108.55 3.29876 107.868 3.08426C107.39 2.93365 106.929 2.67477 106.423 2.6253C106.09 2.59272 105.745 2.6163 105.41 2.6163C104.491 2.6163 103.565 2.56795 102.658 2.73779C101.242 3.00276 100.112 4.11032 98.9567 4.88411C98.4409 5.22957 98.3559 5.70675 98.0499 6.21149C97.8062 6.61337 97.7998 6.50242 97.585 6.21599C97.2868 5.81854 97.049 5.33451 96.8024 4.90211C96.4386 4.26398 95.9953 3.7219 95.5136 3.16975C94.5838 2.1042 93.059 1.38772 91.6193 1.25742C89.6632 1.08036 87.8693 1.63122 86.1877 2.53531C85.2686 3.02943 84.4229 3.45954 83.6744 4.19117C83.3157 4.54178 82.6539 5.00766 82.6341 5.55005C82.6235 5.83949 82.7478 6.23993 82.3395 6.05851C81.5382 5.70245 80.0248 5.72214 79.191 5.95502C78.8712 6.04433 76.4199 7.63321 76.4199 6.70645C76.4199 6.00131 75.9101 5.42769 75.4073 4.9471C74.8969 4.45933 74.3176 4.22476 73.6443 4.03368C73.1175 3.88419 72.0819 3.65854 71.5637 3.92119C71.3199 4.04477 70.6605 4.50887 70.62 3.97519C70.6001 3.71183 70.5725 3.38272 70.5188 3.12026C70.2634 1.87213 69.5874 0.696989 68.3001 0.312499C64.5084 -0.820026 60.5253 1.21625 59.3609 4.9561C59.1821 5.53035 59.3392 6.03901 59.3517 6.61196C59.3622 7.09646 59.447 7.28635 59.011 7.02592C57.8855 6.35357 56.1897 6.588 55.0248 7.10692C54.097 7.52022 53.279 8.15652 52.5621 8.85727C51.9673 9.43875 51.6321 10.2253 51.0385 10.8056C50.352 11.4767 49.7621 9.90308 49.5563 9.50071C48.4524 7.34263 46.612 5.56919 44.1799 4.9291C43.3667 4.71509 42.2915 4.88556 41.4733 4.9831C40.7668 5.06732 39.9408 5.30861 39.3006 5.61304C37.7115 6.36877 36.4653 7.26502 35.4524 8.69078C34.9286 9.42819 34.5948 10.1726 34.9093 11.0576C34.9821 11.2627 35.4155 12.3388 35.1026 12.5335C34.8428 12.6951 34.2012 12.5784 33.8966 12.5784C33.4088 12.5784 32.9327 12.6594 32.442 12.6594C30.0618 12.6594 27.4696 14.1756 26.4764 16.3041C26.2496 16.7902 26.2923 17.3608 26.2923 17.8835C26.2923 18.1159 26.3473 18.3562 26.168 18.5314C25.9667 18.7282 25.6716 18.7853 25.4637 18.9769C25.2201 19.2015 24.9544 19.3938 24.718 19.6248C24.1815 20.1493 24.2209 20.6272 24.2209 21.3257Z" fill="#805536"/>
<path d="M42.637 27.4662C24.9489 25.5977 23.2147 21.5837 24.5587 19.8103C19.8765 21.4972 19.4865 23.8329 19.7466 24.0924C21.4374 31.8781 61.4958 35.1222 87.2476 34.9924C112.999 34.8627 129.517 33.3055 144.994 30.5805C157.376 28.4005 159.04 25.0008 159.17 23.5734C157.506 20.4591 155.529 20.1996 154.748 20.4591C154.878 23.7032 153.448 23.1841 144.214 26.1686C136.826 28.5562 102.031 29.4992 85.5567 29.6722C78.6202 29.7154 60.3251 29.3348 42.637 27.4662Z" fill="#FCBFBF"/>
</svg>
