<svg width="186" height="143" viewBox="0 0 186 143" fill="none" xmlns="http://www.w3.org/2000/svg">
<mask id="mask0" mask-type="alpha" maskUnits="userSpaceOnUse" x="55" y="18" width="129" height="120">
<path d="M178.658 113.654L119.402 137.587C111.179 137.541 74.0736 119.449 56.5491 110.409L55.709 88.0712L59.9316 84.0579C55.6088 32.591 76.1371 19.2124 86.9416 18.9565C116.467 29.0902 142.721 27.4792 152.157 25.407C172.899 27.9738 181.943 82.309 183.872 109.156L178.658 113.654Z" fill="#C4C4C4"/>
</mask>
<g mask="url(#mask0)">
<path d="M178.658 113.654L119.402 137.587C111.179 137.541 74.0736 119.449 56.5491 110.409L55.709 88.0712L59.9316 84.0579C55.6088 32.591 76.1371 19.2124 86.9416 18.9565C116.467 29.0902 142.721 27.4792 152.157 25.407C172.899 27.9738 181.943 82.309 183.872 109.156L178.658 113.654Z" fill="#FCBFBF"/>
<path d="M121.079 107.645L59.5218 84.0705L47.9324 60.8882L80.488 9.55436L155.396 24.7371L121.079 107.645Z" fill="#FCBFBF"/>
<path d="M124.311 114.186L54.2162 87.3425L56.827 83.2436L124.917 106.743L125.2 110.556L124.311 114.186Z" fill="#FFDBDB"/>
<path d="M190.444 109.088C192.226 83.3347 188.053 30.5552 157.094 25.4604C126.251 20.3848 121.103 78.4633 122.384 108.469L122.399 139.195C141.416 142.877 176.945 120.094 190.444 109.088Z" fill="#FFDBDB"/>
<path d="M132.181 96.1997C132.25 101.698 134.086 101.478 134.918 102.057C141.395 102.761 159.632 95.6586 168.275 92.0152C171.681 90.5791 172.36 89.0835 172.408 87.8391C171.262 72.3389 165.363 41.9337 150.934 44.3144C132.898 47.2902 132.129 92.0715 132.181 96.1997Z" fill="#FDB2B2"/>
</g>
<path d="M24.5147 0L21.5107 3.92819L22.4066 12.8865L22.8972 17.5613H26.8254L25.67 4.39034L40.4585 4.62141L41.3828 19.4099H45.542V14.0953L44.8488 5.54569L41.1517 0.462141L24.5147 0Z" fill="white"/>
<path d="M7.18445 39.9752L9.72622 19.641L14.3476 38.3577L24.9769 63.0822L25.9011 118.077L17.3515 128.475C12.345 126.935 2.00847 123.53 0.714481 122.236C-0.579513 120.942 0.175317 84.5717 0.714481 66.5483L7.18445 39.9752Z" fill="#FDB2B2"/>
<path d="M60.5617 14.3264L8.33984 13.171V28.1906C8.33984 30.2702 15.503 62.1579 16.1962 67.9347C16.7508 72.5561 17.0435 110.221 17.1205 128.475C22.2965 129.399 53.3215 126.087 68.187 124.316C68.4181 107.91 68.9265 74.3122 69.1113 71.1697C69.3424 67.2415 68.4181 63.7754 68.187 62.1579C67.956 60.5404 63.7967 46.4451 62.1792 37.8955C60.8852 31.0559 60.5617 19.3329 60.5617 14.3264Z" fill="#FFDBDB"/>
</svg>
