<svg width="76" height="161" viewBox="0 0 76 161" fill="none" xmlns="http://www.w3.org/2000/svg">
<path d="M69.472 50.8532C56.2594 41.5307 52.1221 25.5271 51.7051 18.6906C53.3066 17.5719 58.5449 18.3799 60.9639 18.9237C58.7118 28.7123 72.4749 48.0565 73.2256 49.2218C73.8262 50.154 73.4758 51.0086 73.2256 51.3194C71.6241 52.0652 70.0559 51.3194 69.472 50.8532Z" fill="#FCBFBF"/>
<mask id="mask0" mask-type="alpha" maskUnits="userSpaceOnUse" x="0" y="45" width="76" height="116">
<path d="M40.7157 45.4851H15.5169C-11.2061 111.262 3.5175 139.479 9.03726 149.423C14.557 159.367 19.5168 159.683 23.9165 159.841C35.596 160.393 60.5868 161.167 67.1145 159.841C73.6421 158.515 75.594 152.659 75.754 149.897V120.538C75.754 119.039 75.2261 114.335 73.1142 107.517C71.0023 100.698 58.7948 94.258 52.9551 91.8904C38.3638 83.3669 38.7158 57.4021 40.7157 45.4851Z" fill="#F8E4EB"/>
</mask>
<g mask="url(#mask0)">
<path d="M40.0505 45.4851H15.5169C-11.2061 111.262 3.5175 139.479 9.03726 149.423C14.557 159.367 19.5168 159.683 23.9165 159.841C35.596 160.393 60.5868 161.167 67.1144 159.841C73.6421 158.515 75.594 152.659 75.754 149.897V120.538C75.754 119.039 75.2261 114.335 73.1142 107.517C71.0023 100.698 58.7948 94.258 52.9551 91.8904C38.3638 83.3669 38.0506 57.4021 40.0505 45.4851Z" fill="#FFE8E8"/>
<rect x="-1.45703" y="99.3865" width="83.0381" height="62.6428" fill="#FCBFBF"/>
</g>
<path d="M14.923 26.4816V40.441V41.4381H40.0641V28.2265C46.8347 22.2438 62.1351 22.5762 68.939 23.4902H72.4239V7.038H68.939C56.5925 0.656531 35.0857 -0.274101 25.8756 0.058267C18.9058 0.639912 4.5181 3.59799 2.72586 10.7771C0.93363 17.9563 10.1105 24.2381 14.923 26.4816Z" fill="#FFC6C6"/>
<path d="M10.7559 39.853C10.7559 39.3007 11.2036 38.853 11.7559 38.853H42.2551C42.8074 38.853 43.2551 39.3007 43.2551 39.853V46.5195C43.2551 47.0718 42.8074 47.5195 42.2551 47.5195H11.7559C11.2036 47.5195 10.7559 47.0718 10.7559 46.5195V39.853Z" fill="#FCBFBF"/>
</svg>
