<svg width="227" height="219" viewBox="0 0 227 219" fill="none" xmlns="http://www.w3.org/2000/svg">
<path d="M137.68 74.2833C142.923 90.4257 149.069 100.661 151.486 103.761C158.015 112.384 165.221 115.868 168.008 116.531C169.899 132.443 136.184 140.191 135.729 139.452C135.274 138.712 122.264 120.468 120.373 117.809C118.86 115.681 95.3513 106.275 83.7863 101.838C79.6058 98.634 68.6003 90.0809 58.0213 81.5031C47.4423 72.9253 47.1677 65.2448 48.3528 62.4768C50.4337 62.1309 55.0218 62.2979 56.728 65.7335C58.8608 70.0279 74.3312 81.9162 74.0895 80.281C73.8478 78.6457 67.0085 72.9149 64.6055 71.0804C62.2024 69.246 56.728 65.7335 47.0165 56.1632C37.305 46.5929 43.7466 43.3938 46.4199 42.7683C49.0932 42.1427 54.084 49.0111 59.7148 53.1919C64.2194 56.5366 72.948 62.549 76.7493 65.1372C70.5403 60.2927 57.9716 50.4417 57.3687 49.7933C56.7658 49.1448 47.5054 42.1853 42.9505 38.7866C40.2347 35.6155 36.245 29.0487 42.0125 28.1503C47.7801 27.2519 58.4928 34.9149 63.1282 38.8587C70.214 44.4378 84.4995 55.1184 84.9546 53.2073C84.3432 51.7996 61.5357 36.2706 55.4641 32.6159C49.3925 28.9612 50.2458 25.3778 51.1845 22.7615C52.1231 20.1451 61.2377 22.9468 62.4322 23.2313C63.6266 23.5157 91.9085 42.5572 97.1554 45.6999C102.402 48.8427 114.872 58.7544 114.489 57.7164C114.105 56.6783 110.806 48.0042 108.901 44.0795C97.6171 25.7413 103.025 20.1713 107.139 19.6785C111.518 27.7896 117.722 33.9792 120.277 36.0602C123.893 42.0752 132.437 58.141 137.68 74.2833Z" fill="#FFC5C5"/>
<path d="M160.037 176.762C155.482 167.284 145.008 147.856 139.561 145.967C132.751 143.606 124.728 142.494 124.103 141.888C123.478 141.281 110.456 135.318 104.914 135.401C99.3725 135.484 83.0511 135.42 76.563 133.978C70.0748 132.535 54.0198 129.696 52.7285 125.713C51.4371 121.729 58.5133 121.315 59.4369 121.301C60.3605 121.287 77.3574 125.344 79.8203 125.307C81.7907 125.277 88.4313 124.562 91.5053 124.208C83.2695 122.586 66.4257 119.164 64.9369 118.447C63.0759 117.551 39.2414 109.286 39.2183 107.747C39.1953 106.208 41.2904 102.173 45.9175 102.72C42.3073 101.542 35.0236 99.0645 34.7699 98.5756C34.4528 97.9645 32.2102 92.1474 39.8975 91.4164C47.5849 90.6854 66.7277 94.0939 69.5123 94.976C72.2969 95.8581 92.06 99.5651 93.2776 98.6231C94.4953 97.6811 84.6114 95.6737 82.4425 94.7823C80.2736 93.891 67.6052 91.0014 66.0659 91.0245C64.5265 91.0475 48.4485 86.6693 47.4927 84.5281C46.5368 82.3869 47.4189 79.6023 48.9582 79.5793C52.4381 78.9113 60.1386 77.6874 63.1014 78.1357C66.805 78.6961 86.582 83.3268 87.1977 83.3176C87.8134 83.3084 105.077 84.5895 105.693 84.5803C106.308 84.5711 120.167 84.6714 123.907 87.6947C123.702 87.539 127.392 87.9248 127.884 88.225C126.93 87.4452 108.175 71.4064 105.407 65.4928C102.544 59.377 105.521 52.558 106.137 52.5487C106.752 52.5395 116.43 61.3246 117.684 62.8455C118.688 64.0622 136.183 78.0677 144.805 84.9183C151.258 90.8777 164.687 104.821 166.779 112.919C168.871 121.017 183.781 137.812 190.974 145.197C189.305 157.129 180.781 180.146 160.037 176.762Z" fill="#FFE2E2"/>
</svg>
