<svg width="37" height="27" viewBox="0 0 37 27" fill="none" xmlns="http://www.w3.org/2000/svg">
<path d="M34.195 9.92146L29.7644 12.4586V9.69425C29.7644 7.72511 28.1739 6.13464 26.2048 6.13464H23.554L21.3955 2.57504C20.4109 0.946705 18.669 0 16.7756 0H7.30856C6.28611 0 5.45302 0.833099 5.45302 1.85554C5.45302 2.87798 6.28611 3.71108 7.30856 3.71108H16.7756C17.3815 3.71108 17.9116 4.01403 18.2525 4.54418L19.237 6.13464H3.55961C1.59046 6.13464 0 7.72511 0 9.69425V23.4404C0 25.4095 1.59046 27 3.55961 27H26.2426C28.2118 27 29.8022 25.4095 29.8022 23.4404V20.6382L34.2328 23.1753C35.028 23.6297 36.0126 23.0617 36.0126 22.1529V10.9439C35.9748 10.0351 34.9902 9.46704 34.195 9.92146ZM27.1136 23.4025C27.1136 23.8948 26.6971 24.2735 26.2426 24.2735H3.55961C3.06732 24.2735 2.68864 23.8569 2.68864 23.4025V9.65638C2.68864 9.1641 3.10519 8.78541 3.55961 8.78541H26.2426C26.7349 8.78541 27.1136 9.20197 27.1136 9.65638V23.4025Z" fill="#477B72"/>
<path d="M15.9815 15.3365H6.8931C6.28721 15.3365 5.79492 15.8288 5.79492 16.4347V20.0701C5.79492 20.676 6.28721 21.1682 6.8931 21.1682H15.9815C16.5873 21.1682 17.0796 20.676 17.0796 20.0701V16.4347C17.0796 15.8288 16.5873 15.3365 15.9815 15.3365Z" fill="#477B72"/>
</svg>
