<svg width="42" height="40" viewBox="0 0 42 40" fill="none" xmlns="http://www.w3.org/2000/svg">
<path d="M37.1516 21.2651C39.36 24.1293 39.7452 26.336 39.3855 27.9993C39.0124 29.7244 37.7324 31.3675 35.5974 32.8384C31.2905 35.8055 24.4326 37.4127 19.3705 37.4133C9.77897 37.4145 2.00253 29.6399 2.00137 20.0483C2.00021 10.4568 9.77477 2.68033 19.3663 2.67917C21.8383 2.67887 23.4208 3.06548 24.5919 3.68701C25.7582 4.30597 26.7098 5.25943 27.7564 6.75201C28.5311 7.85686 29.2794 9.13507 30.1877 10.6867C30.5519 11.3088 30.9418 11.9748 31.3695 12.6912C32.8312 15.1398 34.6408 18.0086 37.1516 21.2651Z" fill="#FCF1E2" stroke="white" stroke-width="4"/>
</svg>
