<svg width="379" height="298" viewBox="0 0 379 298" fill="none" xmlns="http://www.w3.org/2000/svg">
<path d="M112.962 231.561C122.963 257.881 141.079 235.883 155.945 245.743C156.029 245.799 156.105 245.859 156.181 245.926C161.946 250.993 188.066 254.784 196.036 246.901C196.639 246.305 197.526 245.996 198.343 246.221C230.234 254.977 228.997 239.455 235.594 231.232C236.034 230.685 236.767 230.473 237.454 230.618C271.379 237.818 289.279 232.703 294.016 229.203C310.911 219.181 319.47 198.897 321.95 188.954C322.125 188.254 322.641 187.695 323.328 187.477C332.853 184.452 344.835 179.338 348.453 174.029C360.725 157.451 351.181 135.651 348.782 131.162C348.533 130.696 348.437 130.165 348.535 129.646C349.957 122.109 349.531 116.566 349.505 115.121C349.479 113.625 346.693 105.879 341.424 104.509C339.64 104.045 332.979 98.128 331.905 96.9125C330.871 95.7423 320.914 91.0413 317.886 89.6291C317.672 89.5295 317.476 89.3898 317.31 89.2227C302.184 74.0006 300.06 69.3003 276.242 63.7237C252.851 58.2472 221.711 73.1255 218.464 73.6083C218.331 73.6281 218.216 73.597 218.089 73.5547C206.588 69.745 189.664 66.1094 182.605 64.7617C168.683 61.5022 148.411 66.4333 139.182 69.565C138.636 69.7505 138.043 69.6997 137.53 69.4341C131.228 66.1686 115.956 61.1345 99.025 64.2325C70.5868 72.6041 58.8906 90.3947 57.964 92.522C57.0519 94.6159 56.4522 95.1699 53.1047 96.0788C52.9979 96.1078 52.8848 96.1281 52.7747 96.139C39.7519 97.4277 32.8579 102.283 27.1485 110.174C21.6539 117.769 22.9394 135.279 23.4696 138.271C23.507 138.482 23.5272 138.692 23.515 138.906C22.2921 160.403 25.7902 166.54 26.418 167.493C33.0675 181.586 46.9315 187.857 48.1967 188.957C48.2732 189.023 48.2934 189.12 48.3051 189.221C49.3917 198.608 54.6913 203.146 57.2419 204.331C65.837 207.533 71.3126 207.386 73.6768 207.493C74.2522 207.519 74.7477 207.885 75.0358 208.383C90.585 235.295 101.399 229.557 111.307 230.256C112.059 230.309 112.694 230.857 112.962 231.561Z" fill="#FCF1E2" stroke="white" stroke-width="7"/>
</svg>
