<svg width="21" height="19" viewBox="0 0 21 19" fill="none" xmlns="http://www.w3.org/2000/svg">
<path d="M15.3866 8.2176C15.1022 8.83887 14.96 9.46015 14.96 10.0814C14.96 10.7309 15.1306 11.2957 15.4719 11.7758C15.8132 12.2559 16.2967 12.4818 16.9224 12.4818C17.5481 12.4818 18.117 12.2559 18.6574 11.804C19.1978 11.3522 19.5959 10.8157 19.8804 10.1944C20.1648 9.5731 20.307 8.95183 20.307 8.35879C20.307 7.70928 20.1363 7.14449 19.795 6.66441C19.4537 6.18433 18.9702 5.93018 18.3445 5.93018C17.7188 5.93018 17.15 6.15609 16.6096 6.60793C16.0976 7.03153 15.671 7.56808 15.3866 8.2176Z" fill="#477B72"/>
<path d="M1.64961 11.804C2.19 12.2558 2.75884 12.4817 3.38455 12.4817C4.01027 12.4817 4.49377 12.2558 4.83507 11.7757C5.17637 11.2957 5.34702 10.7309 5.34702 10.0813C5.34702 9.48831 5.20481 8.86703 4.9204 8.21752C4.63598 7.59624 4.2378 7.03145 3.69741 6.57961C3.15702 6.12777 2.58819 5.90186 1.96247 5.90186C1.33676 5.90186 0.853248 6.15601 0.511949 6.63609C0.17065 7.11617 0 7.68096 0 8.33048C0 8.92351 0.142208 9.54479 0.426624 10.1661C0.71104 10.8156 1.10922 11.3521 1.64961 11.804Z" fill="#477B72"/>
<path d="M11.8031 6.69279C12.1728 7.00343 12.5994 7.17286 13.0829 7.17286C13.7087 7.17286 14.2775 6.94695 14.761 6.46687C15.2729 6.01504 15.6427 5.45025 15.8987 4.82898C16.1546 4.2077 16.2684 3.58643 16.2684 2.9934C16.2684 2.51333 16.1831 2.06149 16.0409 1.60966C15.8987 1.18606 15.6427 0.79071 15.2729 0.480074C14.9032 0.169438 14.4766 0 13.9931 0C13.3674 0 12.7985 0.225917 12.2866 0.705991C11.7746 1.15782 11.4049 1.72262 11.1774 2.34389C10.9214 2.96516 10.8076 3.58643 10.8076 4.17946C10.8076 4.65954 10.8929 5.11137 11.0351 5.56321C11.1774 6.01504 11.4333 6.38215 11.8031 6.69279Z" fill="#477B72"/>
<path d="M5.54646 6.46687C6.05841 6.91871 6.62724 7.17286 7.22451 7.17286C7.70802 7.17286 8.16308 7.00343 8.50438 6.69279C8.87412 6.38215 9.1301 6.01504 9.2723 5.56321C9.41451 5.13961 9.49984 4.65954 9.49984 4.17946C9.49984 3.58643 9.38607 2.96516 9.1301 2.34389C8.87412 1.72262 8.50438 1.15782 8.02088 0.705991C7.50893 0.254157 6.96854 0 6.31438 0C5.83088 0 5.37581 0.169438 5.03452 0.480074C4.66478 0.79071 4.4088 1.15782 4.26659 1.60966C4.12439 2.03325 4.03906 2.51333 4.03906 2.9934C4.03906 3.58643 4.15283 4.2077 4.4088 4.82898C4.66478 5.45025 5.03452 6.01504 5.54646 6.46687Z" fill="#477B72"/>
<path d="M5.518 12.2275C4.8354 12.9335 4.26657 13.696 3.8115 14.5714C3.35644 15.4186 3.12891 16.2093 3.12891 16.887C3.12891 18.0731 3.86839 18.6661 5.37579 18.6661C5.97306 18.6661 6.79787 18.4967 7.82176 18.1296C8.84566 17.7625 9.64202 17.593 10.1824 17.593C10.6944 17.593 11.4338 17.7625 12.4008 18.1296C13.3679 18.4967 14.1358 18.6661 14.7046 18.6661C15.0459 18.6661 15.3588 18.6379 15.6432 18.6097C15.8992 18.5532 16.1836 18.4967 16.4395 18.3555C16.6955 18.2425 16.8946 18.0449 17.0368 17.8189C17.179 17.5648 17.2359 17.2542 17.2359 16.887C17.2359 15.9551 16.8662 14.9385 16.0983 13.8089C15.3588 12.6793 14.4202 11.7192 13.311 10.9285C12.2018 10.1378 11.1494 9.74243 10.1824 9.74243C9.47137 9.74243 8.67501 9.96835 7.82176 10.4484C6.94007 10.9285 6.17215 11.5215 5.518 12.2275Z" fill="#477B72"/>
</svg>
