<svg width="100" height="100" viewBox="0 0 100 100" fill="none" xmlns="http://www.w3.org/2000/svg">
<g clip-path="url(#clip0)">
<path d="M14.6484 100H47.2656V64.4531H35.5469V52.7344H47.2656V38.0859C47.2656 30.0087 53.8368 23.4375 61.9141 23.4375L76.5625 23.4375V35.1562H64.8438C61.6127 35.1562 58.9844 37.7846 58.9844 41.0156V52.7344H76.0338L74.0807 64.4531H58.9844V100H85.3516C93.4288 100 100 93.4288 100 85.3516V14.6484C100 6.5712 93.4288 0 85.3516 0L14.6484 0C6.5712 0 0 6.5712 0 14.6484L0 85.3516C0 93.4288 6.5712 100 14.6484 100ZM5.85938 14.6484C5.85938 9.80225 9.80225 5.85938 14.6484 5.85938L85.3516 5.85937C90.1978 5.85937 94.1406 9.80225 94.1406 14.6484V85.3516C94.1406 90.1978 90.1978 94.1406 85.3516 94.1406H64.8438V70.3125H79.0443L82.9506 46.875H64.8438V41.0156H82.4219V17.5781L61.9141 17.5781C50.6058 17.5781 41.4062 26.7776 41.4062 38.0859V46.875H29.6875L29.6875 70.3125H41.4062V94.1406H14.6484C9.80225 94.1406 5.85938 90.1978 5.85938 85.3516L5.85938 14.6484Z" fill="#3B3B3B"/>
</g>
<defs>
<clipPath id="clip0">
<rect width="100" height="100" fill="white"/>
</clipPath>
</defs>
</svg>
