<svg width="100" height="100" viewBox="0 0 100 100" fill="none" xmlns="http://www.w3.org/2000/svg">
<g clip-path="url(#clip0)">
<path d="M14.6484 100H85.3516C93.4288 100 100 93.4288 100 85.3516V14.6484C100 6.5712 93.4288 0 85.3516 0L14.6484 0C6.5712 0 0 6.5712 0 14.6484L0 85.3516C0 93.4288 6.5712 100 14.6484 100ZM5.85938 14.6484C5.85938 9.80225 9.80225 5.85938 14.6484 5.85938L85.3516 5.85937C90.1978 5.85937 94.1406 9.80225 94.1406 14.6484V85.3516C94.1406 90.1978 90.1978 94.1406 85.3516 94.1406H14.6484C9.80225 94.1406 5.85938 90.1978 5.85938 85.3516L5.85938 14.6484Z" fill="#3B3B3B"/>
<path d="M50 76.3672C64.5386 76.3672 76.3672 64.5386 76.3672 50C76.3672 35.4614 64.5386 23.6328 50 23.6328C35.4614 23.6328 23.6328 35.4614 23.6328 50C23.6328 64.5386 35.4614 76.3672 50 76.3672ZM50 29.4922C61.3083 29.4922 70.5078 38.6917 70.5078 50C70.5078 61.3083 61.3083 70.5078 50 70.5078C38.6917 70.5078 29.4922 61.3083 29.4922 50C29.4922 38.6917 38.6917 29.4922 50 29.4922Z" fill="#3B3B3B"/>
<path d="M79.2969 29.4922C84.1431 29.4922 88.0859 25.5493 88.0859 20.7031C88.0859 15.8569 84.1431 11.9141 79.2969 11.9141C74.4507 11.9141 70.5078 15.8569 70.5078 20.7031C70.5078 25.5493 74.4507 29.4922 79.2969 29.4922ZM79.2969 17.7734C80.912 17.7734 82.2266 19.088 82.2266 20.7031C82.2266 22.3183 80.912 23.6328 79.2969 23.6328C77.6817 23.6328 76.3672 22.3183 76.3672 20.7031C76.3672 19.088 77.6817 17.7734 79.2969 17.7734Z" fill="#3B3B3B"/>
</g>
<defs>
<clipPath id="clip0">
<rect width="100" height="100" fill="white"/>
</clipPath>
</defs>
</svg>
