<svg width="113" height="113" viewBox="0 0 113 113" fill="none" xmlns="http://www.w3.org/2000/svg">
<g clip-path="url(#clip0)">
<path d="M74.0659 56.6354L74.0659 56.6354C77.4192 53.9996 80.7835 53.2207 83.643 53.7618C86.5027 54.3028 88.8898 56.1696 90.2844 58.8901C91.6372 61.701 91.6865 64.2772 90.8407 66.6041C89.9915 68.9403 88.232 71.0463 85.9321 72.887C81.3302 76.5701 74.6272 79.1406 69.0095 80.3434L68.5557 80.4405L68.8865 80.766C70.5813 82.4335 72.4704 84.3212 79.2379 91.0836C80.6261 92.4708 82.2197 94.0631 84.0589 95.9008C86.2733 98.1745 87.0464 100.728 86.8376 103.143C86.6282 105.565 85.4287 107.867 83.6663 109.617C81.9039 111.368 79.5917 112.553 77.1746 112.76C74.7649 112.966 72.2352 112.2 70.0154 110.022C66.5871 106.532 61.8364 101.763 56.7381 96.655L56.5609 96.4774L56.384 96.6552L43.1372 109.968C43.1368 109.968 43.1363 109.969 43.1359 109.969C40.8865 112.167 38.3405 112.931 35.9244 112.716C33.5008 112.5 31.191 111.297 29.436 109.534C27.6809 107.77 26.4942 105.459 26.2986 103.043C26.1037 100.635 26.8921 98.1053 29.1187 95.8832L29.1191 95.8829L44.2093 80.7597L44.5354 80.4329L44.0835 80.3384C38.7886 79.2316 34.3936 77.5599 30.9655 75.3538C28.1563 73.5417 25.0616 71.5408 23.1818 68.9344C22.2462 67.6373 21.6173 66.1969 21.4747 64.5606C21.332 62.9243 21.674 61.0728 22.7112 58.9507C22.7151 58.9428 22.7184 58.9358 22.7208 58.9305L22.7239 58.9237L22.7269 58.9192L22.7337 58.9058C24.1185 56.166 26.515 54.2937 29.3839 53.753C32.2517 53.2125 35.6229 53.9973 38.9619 56.635L38.9617 56.6352L38.9715 56.6422C38.971 56.6419 39.0948 56.7359 39.3065 56.8822C39.5212 57.0305 39.835 57.239 40.2425 57.4873C41.0572 57.9838 42.2466 58.6401 43.7669 59.2945C46.8073 60.6032 51.1739 61.9056 56.5141 61.9056C67.1917 61.9056 73.9784 56.7041 74.0659 56.6354ZM62.0323 74.8006L62.0979 74.8321L62.1701 74.8235C66.4077 74.3192 73.4722 73.0388 78.4856 69.8472L78.4876 69.8459C80.3074 68.6638 81.654 67.7222 82.6328 66.9401C83.6088 66.1601 84.2343 65.5269 84.5965 64.9587C84.966 64.379 85.0626 63.8645 84.9818 63.3424C84.9054 62.8485 84.67 62.3598 84.4163 61.8332L84.4055 61.8108L84.4056 61.8108L84.4026 61.8049C84.0742 61.1669 83.6517 60.7237 83.1555 60.4573C82.6597 60.1911 82.1098 60.1119 81.5438 60.1692C80.4219 60.2827 79.2102 60.934 78.1217 61.7886L78.1202 61.7897C77.8158 62.0324 69.6023 68.4681 56.5047 68.4681C46.9455 68.4681 40.8283 65.3413 36.7093 62.933C36.2977 62.6923 35.9034 62.4572 35.5269 62.2327C34.9645 61.8973 34.4416 61.5856 33.9594 61.3139C33.153 60.8596 32.432 60.5006 31.7845 60.3123C31.1335 60.123 30.5308 60.0987 29.9799 60.3464C29.4318 60.5929 28.9792 61.089 28.584 61.846L28.5839 61.8459L28.5809 61.852L28.5808 61.8522C28.3228 62.381 28.0832 62.872 28.008 63.3703C27.9297 63.8895 28.0301 64.4014 28.4019 64.9776C28.7665 65.5424 29.3936 66.1721 30.3696 66.9472C31.3483 67.7243 32.6932 68.6594 34.5082 69.8321L34.5088 69.8325C38.3064 72.2721 43.9847 73.9786 50.9575 74.7953L51.0083 74.8013L51.0573 74.7868C52.3602 74.4022 53.6121 75.2081 54.2606 76.4721C54.9054 77.7287 54.8972 79.3424 53.754 80.466L53.7243 80.4952L53.7191 80.5057L33.7469 100.515C33.0578 101.203 32.8391 102.027 32.9496 102.824C33.0588 103.612 33.4869 104.364 34.0706 104.943C34.6543 105.522 35.4112 105.946 36.2007 106.059C36.9984 106.174 37.8225 105.969 38.5053 105.302L38.5077 105.299L54.2242 89.5075L54.2243 89.5074C55.5055 88.2175 57.5924 88.2256 58.8701 89.5077L58.8702 89.5078C59.1672 89.8054 59.4753 90.1141 59.793 90.4324C64.2354 94.8839 70.5561 101.218 74.6418 105.374L74.6418 105.374L74.6456 105.377C75.3199 106.035 76.1392 106.233 76.933 106.115C77.7188 105.998 78.4745 105.573 79.0581 104.991C79.6418 104.409 80.0705 103.654 80.18 102.857C80.2906 102.052 80.072 101.217 79.3828 100.509L79.3814 100.507C78.9756 100.097 60.73 81.87 59.3743 80.519L59.3548 80.4996C59.3536 80.4984 59.3524 80.4971 59.3511 80.4958L59.3323 80.477L59.3322 80.4769L59.3074 80.4521C59.3068 80.4516 59.3063 80.451 59.3057 80.4504C58.0733 79.1685 58.1948 77.4937 58.9348 76.2504C59.3048 75.6288 59.8212 75.1326 60.3759 74.8613C60.9274 74.5915 61.5055 74.5474 62.0323 74.8006Z" fill="#3B3B3B" stroke="white" stroke-width="0.5"/>
<path d="M40.0684 30.364V30.3639C40.0684 21.2534 47.4393 13.8428 56.4953 13.8428C65.556 13.8428 72.9269 21.2535 72.9269 30.3639C72.9269 39.4357 65.5569 46.819 56.4953 46.819C47.4336 46.819 40.0637 39.4357 40.0684 30.364ZM66.3644 30.3639C66.3644 24.8746 61.9371 20.4053 56.4953 20.4053C51.0488 20.4053 46.6262 24.8746 46.6262 30.3592C46.6262 35.817 51.055 40.2565 56.4953 40.2565C61.9355 40.2565 66.3644 35.8171 66.3644 30.3639Z" fill="#3B3B3B" stroke="white" stroke-width="0.5"/>
<path d="M86.5528 30.3594C86.5528 46.9264 73.0671 60.4075 56.4953 60.4075C39.9187 60.4075 26.4377 46.9264 26.4377 30.3593C26.4377 13.7589 39.9239 0.25 56.4953 0.25C73.0666 0.25 86.5481 13.7588 86.5528 30.3593V30.3594ZM79.9903 30.3593C79.9903 17.3775 69.45 6.8125 56.4953 6.8125C43.5359 6.8125 33.0002 17.3775 33.0002 30.3593C33.0002 43.3088 43.5365 53.845 56.4953 53.845C69.4541 53.845 79.9903 43.3088 79.9903 30.3593Z" fill="#3B3B3B" stroke="#FFFEFB" stroke-width="0.5"/>
</g>
<defs>
<clipPath id="clip0">
<rect width="113" height="113" fill="white"/>
</clipPath>
</defs>
</svg>
