<svg width="73" height="73" viewBox="0 0 73 73" fill="none" xmlns="http://www.w3.org/2000/svg">
<g clip-path="url(#clip0)">
<path d="M64.8986 38.0428C63.2608 36.8894 61.5049 35.9382 59.8067 35.0183C59.2099 34.6949 58.5926 34.3606 57.9943 34.0247C57.9942 34.0246 57.994 34.0245 57.9939 34.0245C57.1894 33.5732 56.7589 33.2153 56.6389 32.8979C56.5209 32.586 56.6125 32.0517 56.9281 31.2136C57.3982 29.9543 57.9174 28.6799 58.4199 27.4475C58.8665 26.3519 59.3282 25.2191 59.7588 24.0888L59.8554 23.8351C60.6954 21.6294 61.5638 19.3486 61.6797 16.8219C61.712 16.0976 61.6667 15.0509 60.9051 14.3253C60.1433 13.5997 59.093 13.6055 58.3698 13.6731C58.0164 13.7057 57.6946 13.7868 57.3963 13.8667L48.7338 16.1796C47.2298 16.5559 46.3812 17.5439 46.197 19.1208C46.0489 20.3804 45.8673 21.8429 45.5827 23.2603C45.044 25.9938 44.2826 29.18 42.7194 32.0835L42.65 32.2128C42.5439 32.4114 42.3704 32.7361 42.2616 32.8291C41.9851 32.7438 41.4842 31.9664 41.3773 31.5175C41.3746 31.5064 41.3718 31.4955 41.3689 31.4846L38.6799 21.4797C38.6663 21.4288 38.6491 21.3789 38.6288 21.3303C38.052 19.9547 37.2898 18.6249 34.9108 18.7845C34.8345 18.7895 34.7589 18.8022 34.6852 18.8219L25.6765 21.2358C23.9816 21.6899 23.2931 22.7063 22.7998 23.7404C22.6575 24.0414 22.2793 24.8409 22.7743 25.5618C23.2751 26.2912 24.1673 26.2245 24.4601 26.2026C25.4918 26.1259 26.1482 26.5447 26.5896 27.5634C27.4525 29.5412 28.0814 31.7359 28.5679 34.4667C28.6962 35.2005 28.7235 35.7771 28.6534 36.2814C28.6341 36.421 28.6083 36.5112 28.5881 36.5656C28.5306 36.5586 28.4392 36.5402 28.3069 36.4936C27.4906 36.2064 26.774 35.6119 26.0811 35.0371C23.3132 32.7399 20.7849 30.061 18.3507 26.8461C17.3503 25.5295 15.993 25.0081 14.5309 25.3769C11.7438 26.0742 9.1779 26.763 6.68916 27.4819C5.51467 27.8186 4.78673 28.4118 4.52522 29.2452C4.26352 30.0802 4.52389 30.9856 5.29936 31.9367C10.8407 38.7277 15.4987 43.4999 20.4023 47.4106C23.8549 50.1638 27.0431 51.8628 30.4356 52.7576C34 53.6976 37.7177 53.6302 41.7612 52.5466C42.2211 52.4234 42.6859 52.2868 43.1539 52.1371C45.6182 51.355 46.3673 50.0907 45.827 47.6313C45.545 46.3305 45.4092 45.2519 45.6629 44.2152C45.7338 43.9251 45.8449 43.7135 45.9599 43.6494C46.0822 43.5815 46.3362 43.5995 46.6398 43.6982C47.1948 43.8785 47.7134 44.1857 48.146 44.4615C48.5848 44.742 49.0305 45.0338 49.4617 45.3159C50.3794 45.9167 51.3283 46.5379 52.302 47.1121C54.5046 48.4121 56.7158 48.6865 58.8762 47.926L66.8028 45.806C66.8031 45.806 66.8032 45.8059 66.8033 45.8059C66.8284 45.7992 66.8534 45.7917 66.8781 45.7832C67.776 45.4774 68.4307 44.7595 68.6747 43.8132C68.9684 42.6737 68.624 41.4223 67.7527 40.4646C66.8447 39.4694 65.8018 38.6829 64.8986 38.0428ZM66.3986 43.2266C66.3412 43.4495 66.2158 43.5209 66.1485 43.548L58.2235 45.6676C58.2233 45.6676 58.2231 45.6677 58.2227 45.6678C58.1915 45.6761 58.1605 45.6858 58.1302 45.6967C56.6039 46.245 55.13 46.0518 53.4964 45.0878C52.5698 44.5413 51.6442 43.9355 50.7491 43.3495C50.3129 43.064 49.8619 42.7686 49.411 42.4805C48.8522 42.1241 48.1724 41.7247 47.3663 41.4628C46.1594 41.0709 45.3129 41.3194 44.8154 41.5968C44.3231 41.8713 43.6744 42.4519 43.38 43.6574C42.9982 45.2175 43.2268 46.7288 43.5312 48.1329C43.7196 48.991 43.6362 49.2534 43.5916 49.3263C43.5331 49.4219 43.306 49.6233 42.4417 49.8977C38.2899 51.2221 34.5594 51.4146 31.0352 50.485C27.9694 49.6764 25.0564 48.1155 21.8681 45.5732C17.1003 41.771 12.552 37.1073 7.12095 30.4513C6.92416 30.2102 6.84025 30.0494 6.80468 29.9607C6.88387 29.9089 7.04345 29.826 7.33941 29.7408C9.80294 29.0293 12.342 28.3476 15.1039 27.6566C15.4818 27.5613 15.9408 27.5595 16.4781 28.2667C19.0214 31.6258 21.6716 34.432 24.5803 36.8461C25.3526 37.4868 26.3138 38.2843 27.5268 38.711C28.6379 39.1023 29.3916 38.8675 29.8283 38.6016C30.2652 38.3355 30.8198 37.7729 30.9818 36.6047C31.0865 35.8517 31.0553 35.0437 30.883 34.0584C30.3625 31.1375 29.683 28.7751 28.7455 26.6264C28.0778 25.0858 26.9389 24.1488 25.4754 23.9066C25.6748 23.7239 25.9225 23.6036 26.2851 23.5064L35.1761 21.1241C35.7064 21.1023 35.8408 21.2075 35.8868 21.2435C36.0821 21.3965 36.2859 21.8275 36.4311 22.1681L39.0953 32.0808C39.33 33.0366 40.3567 35.0208 42.0844 35.1774C42.0986 35.1787 42.1128 35.1797 42.1269 35.1804C43.6842 35.2647 44.3605 34.0001 44.7234 33.3208L44.7882 33.2001C46.5004 30.0195 47.3165 26.6205 47.8883 23.7192C48.1896 22.2194 48.3783 20.701 48.5318 19.3946C48.6082 18.7396 48.796 18.5847 49.3094 18.4587C49.3165 18.4571 49.3234 18.4552 49.3305 18.4533L58.004 16.1375C58.2057 16.0835 58.4168 16.0294 58.5876 16.0136C59.0196 15.9732 59.2128 16.0133 59.2784 16.0338C59.3018 16.098 59.3512 16.2876 59.3321 16.716C59.2336 18.8646 58.4688 20.8726 57.6593 22.9986L57.5626 23.2527C57.1419 24.3571 56.6853 25.4771 56.2439 26.5604C55.7349 27.8088 55.2089 29.0994 54.7277 30.3887C53.6952 33.1311 54.2492 34.619 56.8448 36.0747C57.4583 36.4192 58.0833 36.7578 58.6878 37.0852C60.4017 38.0137 62.0207 38.8907 63.5431 39.9628C64.3413 40.5284 65.2592 41.2186 66.0155 42.0476C66.4106 42.4819 66.4688 42.9542 66.3986 43.2266Z" fill="#3B3B3B"/>
</g>
<defs>
<clipPath id="clip0">
<rect x="0.429199" y="15.2705" width="59" height="59" transform="rotate(0 0 0)" fill="white"/>
</clipPath>
</defs>
</svg>
