<svg width="140" height="140" viewBox="0 0 140 140" fill="none" xmlns="http://www.w3.org/2000/svg">
<g clip-path="url(#clip0)">
<path d="M133.78 91.789C130.735 88.1395 127.294 84.8809 123.967 81.7295C122.797 80.6218 121.588 79.4764 120.423 78.3391C120.423 78.3389 120.422 78.3386 120.422 78.3383C118.855 76.8101 118.088 75.7253 118.008 74.9242C117.929 74.1367 118.468 72.9683 119.705 71.2412C121.556 68.6436 123.529 66.0415 125.438 63.5253C127.134 61.2886 128.888 58.9756 130.569 56.6494L130.947 56.1272C134.226 51.5876 137.618 46.8934 139.435 41.1731C139.954 39.533 140.493 37.106 139.193 34.9753C137.892 32.8442 135.481 32.2125 133.782 31.9232C132.952 31.781 132.165 31.7693 131.432 31.7693L110.157 31.7504C106.479 31.6892 103.927 33.4326 102.536 36.9337C101.423 39.7299 100.109 42.9704 98.5861 46.0444C95.6726 51.9788 91.9706 58.814 86.6046 64.5089L86.3662 64.7626C86.0009 65.1526 85.4039 65.7902 85.0974 65.9365C84.5161 65.5712 83.8453 63.4819 83.876 62.3873C83.8768 62.3602 83.8771 62.3334 83.8771 62.3066L83.8582 37.7237C83.8582 37.5987 83.8494 37.4737 83.8328 37.3499C83.3556 33.8428 82.4254 30.3269 76.8746 29.2315C76.6966 29.1962 76.5155 29.1787 76.3345 29.1787L54.2038 29.1787C50.0401 29.1787 47.8379 31.0854 46.0723 33.1526C45.5612 33.7553 44.2033 35.3554 44.8951 37.3116C45.5951 39.291 47.6809 39.6861 48.3656 39.8157C50.7773 40.2735 52.0245 41.6366 52.4106 44.2424C53.1737 49.3057 53.2672 54.7223 52.7053 61.2801C52.5486 63.0408 52.2572 64.379 51.7869 65.4919C51.6567 65.8001 51.5424 65.9909 51.4626 66.1033C51.3351 66.0519 51.1369 65.9535 50.8624 65.7656C49.1676 64.606 47.8904 62.8032 46.6552 61.0603C41.7218 54.095 37.5721 46.4021 33.9674 37.5385C32.4829 33.9065 29.6922 31.8778 26.1145 31.8253C19.2982 31.7118 12.9941 31.7146 6.84831 31.8341C3.94959 31.8844 1.91684 32.7968 0.805588 34.5466C-0.307033 36.2996 -0.266291 38.5347 0.926995 41.1909C9.45719 60.1593 17.2026 73.9581 26.0401 85.9331C32.2628 94.3637 38.5267 100.216 45.7529 104.35C53.3452 108.694 61.9076 110.823 71.8411 110.822C72.9707 110.822 74.12 110.795 75.2845 110.739C81.4131 110.46 83.9066 108.022 84.1787 102.053C84.3312 98.8987 84.6823 96.3432 85.9005 94.1228C86.2412 93.5013 86.6257 93.0846 86.9286 93.0083C87.2507 92.9279 87.822 93.1251 88.4571 93.5377C89.6185 94.2918 90.6184 95.3145 91.4406 96.2122C92.2741 97.1246 93.1163 98.0672 93.9314 98.9786C95.6658 100.919 97.4593 102.926 99.3384 104.84C103.588 109.172 108.488 111.159 113.907 110.743L133.377 110.752C133.377 110.752 133.378 110.752 133.378 110.752C133.44 110.752 133.502 110.75 133.563 110.746C135.809 110.596 137.751 109.353 138.891 107.334C140.264 104.903 140.243 101.823 138.834 99.0926C137.364 96.254 135.457 93.8108 133.78 91.789ZM134.034 104.592C133.766 105.067 133.435 105.154 133.264 105.175L113.798 105.166C113.797 105.166 113.797 105.166 113.796 105.166C113.719 105.166 113.642 105.169 113.566 105.175C109.731 105.495 106.471 104.147 103.319 100.934C101.531 99.112 99.7816 97.155 98.0898 95.2623C97.2654 94.34 96.4131 93.3859 95.5567 92.4486C94.4947 91.2886 93.1819 89.9556 91.4951 88.8602C88.9696 87.221 86.8767 87.2705 85.5661 87.6008C84.2692 87.9275 82.4256 88.86 81.0106 91.4423C79.1775 94.7835 78.7731 98.3879 78.6084 101.793C78.5133 103.876 78.1611 104.426 78.014 104.565C77.8212 104.749 77.177 105.071 75.0275 105.169C64.6981 105.655 56.0295 103.805 48.5228 99.5098C41.9925 95.7736 36.2744 90.4068 30.5281 82.6217C21.9353 70.979 14.3747 57.4963 6.01432 38.9052C5.71135 38.2317 5.61783 37.8114 5.59076 37.5864C5.80405 37.5164 6.22077 37.4243 6.95139 37.4109C13.0349 37.293 19.2731 37.2897 26.0278 37.4024C26.9526 37.416 28.0056 37.6936 28.803 39.6446C32.5693 48.9057 36.92 56.9653 42.1044 64.2847C43.4809 66.2275 45.1942 68.6457 47.7123 70.3687C50.0188 71.9481 51.8905 71.8726 53.0548 71.5313C54.2196 71.1898 55.8362 70.241 56.925 67.663C57.6275 66.0013 58.0521 64.1302 58.2624 61.766C58.8632 54.7515 58.7565 48.9196 57.9275 43.4188C57.3431 39.4778 55.3082 36.6307 52.1027 35.1769C52.672 34.8805 53.3135 34.7569 54.2043 34.7569H76.0458C77.2746 35.0325 77.518 35.3562 77.6014 35.467C77.9552 35.9376 78.1575 37.0507 78.2811 37.9205L78.2997 62.2768C78.2505 64.6117 79.3853 69.7901 83.249 71.21C83.2807 71.2218 83.3127 71.2327 83.3447 71.2431C86.8622 72.3927 89.1889 69.9096 90.4379 68.5755L90.6605 68.3387C96.5384 62.1002 100.496 54.8108 103.589 48.5122C105.2 45.2596 106.565 41.8952 107.72 38.9952C108.297 37.5407 108.823 37.3012 110.077 37.3277C110.094 37.3283 110.111 37.3283 110.128 37.3283L131.43 37.3471C131.926 37.3471 132.443 37.3529 132.844 37.4215C133.859 37.5943 134.277 37.8049 134.415 37.8921C134.429 38.0537 134.426 38.5186 134.119 39.4887C132.574 44.3529 129.588 48.4857 126.427 52.8612L126.049 53.3843C124.406 55.6571 122.672 57.9439 120.995 60.1558C119.062 62.7045 117.063 65.3396 115.169 67.9991C111.118 73.6508 111.474 77.4012 116.529 82.3319C117.724 83.4981 118.948 84.658 120.133 85.7797C123.491 88.9606 126.663 91.9649 129.494 95.3571C130.976 97.1438 132.656 99.2895 133.881 101.654C134.519 102.892 134.363 104.01 134.034 104.592Z" fill="#fff"/>
</g>
<defs>
<clipPath id="clip0">
<rect width="140" height="140" fill="white"/>
</clipPath>
</defs>
</svg>
