<svg width="1497" height="1092" viewBox="0 0 1497 1092" fill="none" xmlns="http://www.w3.org/2000/svg">
<path d="M971.144 1041.95C1302.75 903.482 1463.93 647.847 1491.13 450.497C1504.73 351.784 1484.79 267.868 1436.2 220.37C1387.7 172.956 1310.27 161.487 1208.05 208.457C1005.18 301.673 804.464 205.518 616.703 115.568C614.427 114.478 612.152 113.388 609.879 112.3C514.939 66.8313 423.368 23.5594 336.368 7.59995C249.44 -8.34632 167.125 2.9856 90.6291 66.7297C14.228 130.395 -10.5331 240.353 5.84839 365.419C22.2268 490.461 79.7185 630.407 167.536 753.736C343.182 1000.41 639.86 1180.29 971.144 1041.95Z" stroke="white" stroke-opacity="0.28" stroke-width="2"/>
</svg>
