<svg width="2180" height="1589" viewBox="0 0 2180 1589" fill="none" xmlns="http://www.w3.org/2000/svg">
<path d="M1414.67 1517.53C1897.68 1315.83 2132.51 943.456 2172.14 655.904C2191.95 512.091 2162.93 389.71 2092.02 320.388C2021.19 251.152 1908.19 234.503 1759.25 302.942C1464.02 438.597 1171.92 298.664 898.44 167.648C895.15 166.072 891.863 164.497 888.578 162.924C750.339 96.7187 616.932 33.6735 490.167 10.4195C363.474 -12.8212 243.466 3.69503 131.954 96.6175C20.5379 189.461 -15.5193 349.767 8.34561 531.966C32.2074 714.141 115.962 918.005 243.883 1097.65C499.735 1456.96 931.979 1719.08 1414.67 1517.53Z" stroke="white" stroke-opacity="0.28" stroke-width="2"/>
</svg>
