<svg width="1889" height="1378" viewBox="0 0 1889 1378" fill="none" xmlns="http://www.w3.org/2000/svg">
<path d="M1226.13 1315.44C1644.6 1140.7 1848.04 818.085 1882.37 568.981C1899.54 444.391 1874.39 338.406 1812.99 278.386C1751.68 218.452 1653.84 204.011 1524.81 263.299C1268.95 380.865 1015.81 259.591 778.861 146.08C776.003 144.711 773.148 143.343 770.295 141.976C650.511 84.61 534.937 29.9932 425.122 9.84841C315.378 -10.2831 211.436 4.02341 114.85 84.5087C18.3591 164.915 -12.8832 303.761 7.79191 461.607C28.4639 619.429 101.024 796.048 211.851 951.69C433.516 1262.99 807.975 1490.05 1226.13 1315.44Z" stroke="white" stroke-opacity="0.28" stroke-width="2"/>
</svg>
