<svg width="190" height="93" viewBox="0 0 190 93" fill="none" xmlns="http://www.w3.org/2000/svg">
<path d="M69.2744 1.6438L0 2.34828V83.5989L69.2744 88.7652V1.6438Z" fill="#FCBFBF"/>
<path d="M108.921 0.469482L69 1.64362V88.765L108.921 79.137V0.469482Z" fill="#FB9B9B"/>
<path d="M69.2744 5.16623H0V0H69.2744V5.16623Z" fill="#FB9B9B"/>
<path d="M109.195 0H69.2744V5.16623L109.195 4.69657V0Z" fill="#EE8686"/>
<path d="M69.2744 88.9999L0 84.773V79.8416L69.2744 84V88.9999Z" fill="#FB9B9B"/>
<path d="M109.43 76.3193L69 84V89L109.43 81.0159V76.3193Z" fill="#EE8686"/>
<mask id="mask0" mask-type="alpha" maskUnits="userSpaceOnUse" x="13" y="27" width="44" height="51">
<path d="M33.799 27.1177C12.6635 26.6481 12.5251 58.3636 13.3861 74.7234L55.8902 77.3065C60.1162 24.0005 34.585 27.5107 33.799 27.1177Z" fill="#FB9B9B"/>
</mask>
<g mask="url(#mask0)">
<path d="M33.799 26.7248C12.6635 26.2552 12.5251 58.3637 13.3861 74.7234L55.8902 77.3066C60.1162 24.0006 34.7384 26.7248 33.799 26.7248Z" fill="#FB9B9B"/>
<path d="M47.9472 59.3447C32.9959 60.796 24.6528 62.5394 9.82503 66.8119L8.646 69.17V77.0302L59.7375 79.7813L103.362 59.3447H47.9472Z" fill="#CD6565"/>
<path d="M12.321 66.812C12.321 66.812 24.218 68.217 26.8589 67.5145C29.4998 66.812 34.9998 71.188 38.4998 69C41.9998 66.812 47.4998 71 49.9998 70C52.4999 69 62.5679 69.24 62.5679 69.24L62.0367 80.2315L11.7899 77.8035L12.321 66.812Z" fill="#DD7676"/>
</g>
<path d="M149 2L80 2.71968V85.7224L149 91V2Z" fill="#FCBFBF"/>
<path d="M189.195 0.469482L149 1.5V89L189 79L189.195 0.469482Z" fill="#FB9B9B"/>
<path d="M149.274 5.16623H80V0H149.274V5.16623Z" fill="#FB9B9B"/>
<path d="M189 0H149V5L189 4.54545V0Z" fill="#EE8686"/>
<path d="M149 93L80 88.9314V84L149.274 87.9921L149 93Z" fill="#FB9B9B"/>
<path d="M189 79L149 88V93L189 83.5V79Z" fill="#EE8686"/>
<mask id="mask1" mask-type="alpha" maskUnits="userSpaceOnUse" x="93" y="27" width="44" height="51">
<path d="M113.799 27.1177C92.6635 26.6481 92.5251 58.3636 93.3861 74.7234L135.89 77.3065C140.116 24.0005 114.585 27.5107 113.799 27.1177Z" fill="#FB9B9B"/>
</mask>
<g mask="url(#mask1)">
<path d="M113.799 26.7248C92.6635 26.2552 92.5251 58.3637 93.3861 74.7234L135.89 77.3066C140.116 24.0006 114.738 26.7248 113.799 26.7248Z" fill="#FB9B9B"/>
<path d="M127.947 59.3447C112.996 60.796 104.653 62.5394 89.825 66.8119L88.646 69.17V77.0302L139.737 79.7813L183.362 59.3447H127.947Z" fill="#CD6565"/>
<path d="M92.321 66.812C92.321 66.812 104.218 68.217 106.859 67.5145C109.5 66.812 115 71.188 118.5 69C122 66.812 127.5 71 130 70C132.5 69 142.568 69.24 142.568 69.24L142.037 80.2315L91.7899 77.8035L92.321 66.812Z" fill="#DD7676"/>
</g>
</svg>
