<svg width="70" height="70" viewBox="0 0 70 70" fill="none" xmlns="http://www.w3.org/2000/svg">
<path d="M23.5049 4.00012V22.4901C23.5049 23.0424 23.0571 23.4901 22.5049 23.4901H4C3.44772 23.4901 3 23.9378 3 24.4901V45.9249C3 46.4772 3.44771 46.9249 4 46.9249H22.5049C23.0571 46.9249 23.5049 47.3727 23.5049 47.9249V66.0001C23.5049 66.5524 23.9526 67.0001 24.5049 67.0001H45.7437C46.296 67.0001 46.7437 66.5524 46.7437 66.0001V47.9249C46.7437 47.3727 47.1914 46.9249 47.7437 46.9249H66C66.5523 46.9249 67 46.4772 67 45.9249V24.4901C67 23.9378 66.5523 23.4901 66 23.4901H47.7437C47.1914 23.4901 46.7437 23.0424 46.7437 22.4901V4.00012C46.7437 3.44784 46.296 3.00012 45.7437 3.00012H24.5049C23.9526 3.00012 23.5049 3.44784 23.5049 4.00012Z" fill="#FCBFBF" stroke="#FFDBDB" stroke-width="5"/>
</svg>
