<svg width="192" height="79" viewBox="0 0 192 79" fill="none" xmlns="http://www.w3.org/2000/svg">
<ellipse cx="99" cy="61" rx="93" ry="18" fill="#EEE9D5"/>
<path d="M0 53.5173C0.877748 51.4626 3.82352 50.1587 5.18669 49.7636C46.4143 49.3356 129.588 48.7956 132.46 50.06C135.333 51.3244 136.516 52.6282 136.749 53.1222V62.6051C132.68 70.1914 96.8183 72.6806 79.3963 72.977C19.2307 73.4511 1.39642 66.5233 0 63.0002V53.5173Z" fill="#FCBFBF"/>
<path d="M3.88257 53.1639L14.8593 18.1884C14.8751 18.0413 14.9194 17.9055 14.9866 17.7827L14.8593 18.1884C14.679 19.8675 18.226 23.0115 34.1935 24.8391C55.9014 27.3237 92.2145 27.0256 106.12 24.3422C120.025 21.6587 119.724 20.6649 122.225 18.2796L133.73 53.1639C133.129 54.6216 128.51 58.168 114.723 59.8228C94.1495 62.292 69.4803 65.71 23.2896 59.8228C18.0877 59.2596 6.92367 57.1393 3.88257 53.1639Z" fill="#FFDBDB"/>
<path d="M77.218 62.6189L78.8084 26.1855C81.1941 26.1855 99.2853 25.1873 109.722 23.3906L116.581 59.6244L121.651 62.3195V69.0072C115.13 71.0036 93.0229 72.7005 81.4923 72.9999V65.8131L77.218 62.6189Z" fill="#FF9898" fill-opacity="0.33"/>
<path d="M18.5773 16.3566C18.5773 16.6225 18.6426 16.8648 18.6969 17.1084C18.6011 17.179 18.4502 17.1259 18.4502 17.2574C18.4502 17.4245 18.4575 17.6326 18.5279 17.7854C18.9674 18.7403 19.7249 19.2685 20.6991 19.6766C21.5515 20.0337 22.4197 20.4305 23.2164 20.8914C23.9492 21.3154 24.6298 21.8474 25.3983 22.2098C26.8763 22.9068 28.5767 23.1303 30.1539 23.535C31.4662 23.8718 32.8016 23.7204 34.1399 23.6903C35.5346 23.659 36.919 23.6096 38.3129 23.5488C39.4861 23.4976 40.65 23.4189 41.8258 23.4453C42.7882 23.4669 43.632 23.6813 44.5584 23.8974C48.1053 24.7248 51.817 24.8466 55.436 25.164C57.7286 25.365 60.0159 25.659 62.3099 25.83C64.3067 25.9789 66.273 26.0475 68.2765 26.0475C70.3991 26.0475 72.514 25.9436 74.635 25.8749C76.5064 25.8143 78.3658 25.6078 80.2344 25.5022C82.3319 25.3837 84.4163 25.019 86.5081 24.805C88.489 24.6024 90.4858 24.4108 92.4571 24.1355C96.5946 23.5577 100.742 23.3697 104.839 22.4893C107.444 21.9293 109.875 20.8939 112.376 20.0217C113.226 19.7256 114.103 19.5527 114.95 19.2452C115.455 19.062 115.903 18.8604 116.38 18.6275C116.794 18.4252 117.279 18.2487 117.714 18.096C118.135 17.9487 118.502 17.653 118.88 17.4265C118.965 17.3751 119.34 17.147 119.363 17.0675C119.408 16.9142 118.735 16.4407 118.735 16.2797C118.735 15.1441 118.84 14.3891 118.735 13.2575C118.666 12.5224 117.875 11.8349 117.298 11.4456C116.804 11.1125 116.273 10.8329 115.759 10.531C115.336 10.2832 114.84 10.2161 114.389 10.0341C113.636 9.73036 112.947 9.70967 112.154 9.70967C111.642 9.70967 111.205 10.0355 110.66 10.0203C110.33 10.011 109.989 9.61227 109.771 9.39906C109.431 9.06662 109.04 8.77526 108.641 8.51556C108.12 8.17614 107.642 7.74856 107.165 7.35252C106.875 7.11128 106.534 6.95905 106.216 6.75892C105.698 6.43392 104.997 6.01833 104.366 5.98587C103.304 5.93124 102.147 6.03544 101.206 6.55531C100.811 6.77344 100.368 6.93309 100.019 7.22483C99.6828 7.5069 99.5079 7.96546 99.1298 8.21186C98.6918 8.49726 97.653 7.38915 97.2798 7.16271C96.4945 6.68625 95.6917 6.52133 94.7731 6.65194C94.2021 6.73313 93.5412 7.03729 92.9655 6.87971C92.4967 6.75141 92.295 6.43724 91.9134 6.15497C90.6495 5.22005 89.1615 4.39685 87.5144 4.72619C87.2403 4.781 86.0773 5.07364 85.9397 4.77106C85.7461 4.34522 85.2265 3.95104 84.9371 3.58731C84.7555 3.35907 84.4677 3.22159 84.2133 3.08689C83.732 2.83204 83.2569 2.53011 82.734 2.3656C82.3668 2.25008 82.0136 2.05152 81.6254 2.01358C81.3698 1.98859 81.1054 2.00668 80.8487 2.00668C80.1437 2.00668 79.4334 1.96959 78.7375 2.09986C77.6517 2.30309 76.785 3.15258 75.8989 3.74606C75.5033 4.01103 75.4381 4.37702 75.2034 4.76415C75.0165 5.07239 75.0116 4.98729 74.8468 4.76761C74.6181 4.46276 74.4357 4.09152 74.2466 3.75987C73.9676 3.27043 73.6276 2.85466 73.2581 2.43117C72.545 1.6139 71.3755 1.06437 70.2713 0.964427C68.7709 0.828627 67.395 1.25113 66.1052 1.94456C65.4003 2.32354 64.7516 2.65343 64.1776 3.21458C63.9025 3.4835 63.3949 3.84083 63.3797 4.25683C63.3716 4.47883 63.4669 4.78597 63.1537 4.64681C62.5391 4.37373 61.3784 4.38883 60.7388 4.56744C60.4935 4.63595 58.6135 5.8546 58.6135 5.14378C58.6135 4.60294 58.2224 4.16299 57.8367 3.79438C57.4453 3.42027 57.001 3.24035 56.4846 3.09379C56.0806 2.97914 55.2862 2.80607 54.8888 3.00751C54.7018 3.1023 54.196 3.45826 54.165 3.04893C54.1497 2.84694 54.1285 2.59452 54.0873 2.39321C53.8915 1.4359 53.3729 0.534583 52.3856 0.239684C49.4774 -0.628952 46.4224 0.93285 45.5293 3.80128C45.3922 4.24173 45.5127 4.63186 45.5223 5.07131C45.5304 5.44291 45.5954 5.58856 45.261 5.38881C44.3977 4.87312 43.0971 5.05293 42.2036 5.45094C41.4919 5.76793 40.8646 6.25597 40.3147 6.79344C39.8585 7.23943 39.6014 7.84272 39.1461 8.28779C38.6196 8.8025 38.1672 7.59557 38.0093 7.28695C37.1627 5.63172 35.7511 4.27151 33.8857 3.78057C33.262 3.61643 32.4373 3.74717 31.8097 3.82199C31.2678 3.88658 30.6343 4.07165 30.1433 4.30515C28.9244 4.88478 27.9686 5.5722 27.1918 6.66574C26.79 7.23133 26.534 7.8023 26.7752 8.48105C26.8311 8.63835 27.1634 9.46376 26.9235 9.61303C26.7242 9.73701 26.2321 9.64755 25.9985 9.64755C25.6244 9.64755 25.2592 9.70967 24.8828 9.70967C23.0572 9.70967 21.069 10.8726 20.3073 12.5051C20.1333 12.8779 20.166 13.3155 20.166 13.7165C20.166 13.8947 20.2082 14.079 20.0707 14.2134C19.9163 14.3644 19.69 14.4082 19.5305 14.5551C19.3437 14.7273 19.1399 14.8749 18.9586 15.0521C18.5471 15.4543 18.5773 15.8208 18.5773 16.3566Z" fill="#805536"/>
<path d="M32.7019 21.0664C19.1353 19.6332 17.8052 16.5545 18.836 15.1943C15.2448 16.4882 14.9457 18.2796 15.1452 18.4787C16.442 24.4503 47.1664 26.9384 66.9178 26.8389C86.6692 26.7394 99.338 25.545 111.209 23.455C120.705 21.783 121.982 19.1754 122.082 18.0806C120.805 15.692 119.289 15.4929 118.69 15.692C118.79 18.1801 117.693 17.782 110.61 20.0711C104.944 21.9024 78.2565 22.6256 65.6209 22.7583C60.3007 22.7915 46.2685 22.4995 32.7019 21.0664Z" fill="#FCBFBF"/>
</svg>
