<svg width="214" height="100" viewBox="0 0 214 100" fill="none" xmlns="http://www.w3.org/2000/svg">
<ellipse cx="111" cy="80" rx="103" ry="20" fill="#EEE9D5"/>
<path d="M0 68.0953C1.11685 65.481 4.86506 63.8219 6.59956 63.3191C59.0576 62.7745 164.888 62.0874 168.543 63.6962C172.198 65.305 173.704 66.9641 174 67.5925V79.6586C168.822 89.3115 123.192 92.4788 101.024 92.8559C24.4691 93.4592 1.77681 84.6442 0 80.1614V68.0953Z" fill="#E9BC84"/>
<path d="M4.93994 67.6459L18.9067 23.1429C18.9268 22.9557 18.9833 22.7829 19.0687 22.6267L18.9067 23.1429C18.6774 25.2794 23.1905 29.2798 43.5077 31.6052C71.1288 34.7667 117.334 34.3873 135.027 30.973C152.719 27.5586 152.338 26.294 155.52 23.259L170.158 67.6459C169.394 69.5006 163.516 74.013 145.973 76.1186C119.796 79.2604 88.4067 83.6095 29.6335 76.1186C23.0146 75.402 8.80945 72.7042 4.93994 67.6459Z" fill="#FAD4A5"/>
<path d="M98.2524 79.6764L100.276 33.3184C103.312 33.3184 126.331 32.0484 139.611 29.7622L148.338 75.8661L154.789 79.2954V87.8049C146.492 90.3451 118.363 92.5042 103.691 92.8852V83.7407L98.2524 79.6764Z" fill="#DFAE71" fill-opacity="0.47"/>
<path d="M23.6378 20.8122C23.6378 21.1505 23.7209 21.4588 23.7899 21.7687C23.6681 21.8586 23.4761 21.791 23.4761 21.9583C23.4761 22.171 23.4854 22.4358 23.5749 22.6302C24.1342 23.8451 25.098 24.5173 26.3376 25.0366C27.4222 25.491 28.5268 25.9958 29.5406 26.5823C30.4731 27.1218 31.339 27.7987 32.3168 28.2598C34.1975 29.1466 36.361 29.4311 38.3679 29.946C40.0377 30.3745 41.7368 30.1819 43.4396 30.1436C45.2143 30.1037 46.9758 30.041 48.7495 29.9636C50.2423 29.8984 51.7231 29.7982 53.2193 29.8318C54.4438 29.8594 55.5175 30.1321 56.6963 30.4071C61.2094 31.4599 65.9321 31.6149 70.5369 32.0187C73.454 32.2745 76.3644 32.6486 79.2833 32.8662C81.824 33.0556 84.326 33.1429 86.8752 33.1429C89.576 33.1429 92.2671 33.0106 94.9658 32.9233C97.3469 32.8462 99.7128 32.5834 102.09 32.449C104.759 32.2982 107.412 31.8343 110.073 31.562C112.594 31.3042 115.134 31.0604 117.643 30.7101C122.907 29.9749 128.185 29.7357 133.397 28.6155C136.713 27.9029 139.805 26.5854 142.988 25.4757C144.069 25.099 145.185 24.8789 146.263 24.4877C146.905 24.2546 147.476 23.998 148.082 23.7016C148.609 23.4443 149.226 23.2197 149.78 23.0254C150.315 22.838 150.782 22.4618 151.263 22.1735C151.372 22.1081 151.849 21.8179 151.878 21.7168C151.935 21.5217 151.078 20.9192 151.078 20.7143C151.078 19.2694 151.212 18.3088 151.078 16.8688C150.991 15.9335 149.985 15.0587 149.25 14.5634C148.621 14.1395 147.946 13.7838 147.291 13.3997C146.754 13.0843 146.123 12.9991 145.549 12.7674C144.591 12.3809 143.714 12.3546 142.705 12.3546C142.054 12.3546 141.498 12.7692 140.805 12.7498C140.384 12.7381 139.95 12.2307 139.673 11.9594C139.24 11.5364 138.742 11.1657 138.235 10.8352C137.572 10.4033 136.964 9.85929 136.357 9.35537C135.988 9.04841 135.554 8.85472 135.149 8.60007C134.491 8.18654 133.598 7.65774 132.795 7.61643C131.444 7.54693 129.972 7.67951 128.774 8.34099C128.272 8.61855 127.708 8.82168 127.265 9.19289C126.837 9.5518 126.614 10.1353 126.133 10.4488C125.576 10.8119 124.254 9.40197 123.779 9.11385C122.78 8.5076 121.758 8.29776 120.59 8.46395C119.863 8.56726 119.022 8.95427 118.29 8.75377C117.693 8.59051 117.436 8.19076 116.951 7.8316C115.343 6.64201 113.449 5.59456 111.353 6.01362C111.005 6.08335 109.525 6.45572 109.35 6.07071C109.104 5.52887 108.442 5.02731 108.074 4.5645C107.843 4.2741 107.477 4.09916 107.153 3.92777C106.541 3.6035 105.936 3.21932 105.271 3.00999C104.804 2.86301 104.354 2.61036 103.86 2.56208C103.535 2.53029 103.199 2.5533 102.872 2.5533C101.975 2.5533 101.071 2.50611 100.186 2.67187C98.8043 2.93046 97.7014 4.01135 96.574 4.7665C96.0706 5.10365 95.9876 5.56934 95.689 6.06192C95.4512 6.45412 95.445 6.34585 95.2353 6.06631C94.9443 5.67843 94.7122 5.20606 94.4716 4.78406C94.1165 4.1613 93.684 3.63228 93.2138 3.09343C92.3064 2.05353 90.8183 1.35431 89.4133 1.22714C87.5043 1.05435 85.7536 1.59194 84.1125 2.47426C83.2155 2.95648 82.3901 3.37623 81.6597 4.09024C81.3097 4.43241 80.6638 4.88708 80.6445 5.41641C80.6341 5.69888 80.7554 6.08968 80.357 5.91262C79.5749 5.56514 78.098 5.58435 77.2843 5.81162C76.9722 5.89879 74.5799 7.4494 74.5799 6.54496C74.5799 5.8568 74.0823 5.29699 73.5916 4.82798C73.0936 4.35196 72.5282 4.12303 71.8711 3.93655C71.357 3.79066 70.3463 3.57045 69.8406 3.82677C69.6027 3.94737 68.9592 4.4003 68.9197 3.87946C68.9002 3.62245 68.8733 3.30127 68.8209 3.04512C68.5716 1.82705 67.9119 0.680205 66.6556 0.304974C62.9552 -0.80028 59.068 1.18696 57.9316 4.83676C57.7572 5.39718 57.9105 5.89359 57.9227 6.45274C57.9329 6.92558 58.0157 7.1109 57.5902 6.85674C56.4918 6.20057 54.8368 6.42936 53.6999 6.93578C52.7945 7.33913 51.9962 7.96011 51.2966 8.64399C50.7161 9.21147 50.389 9.9791 49.8097 10.5454C49.1397 11.2003 48.564 9.66462 48.3631 9.27194C47.2859 7.16582 45.4898 5.43508 43.1162 4.81041C42.3226 4.60155 41.2733 4.76791 40.4748 4.86311C39.7853 4.9453 38.9792 5.18078 38.3544 5.47788C36.8035 6.21541 35.5874 7.09008 34.5989 8.48151C34.0876 9.20117 33.7619 9.92767 34.0688 10.7913C34.1399 10.9915 34.5628 12.0417 34.2575 12.2317C34.0039 12.3894 33.3778 12.2756 33.0805 12.2756C32.6045 12.2756 32.1398 12.3546 31.661 12.3546C29.338 12.3546 26.8083 13.8343 25.839 15.9115C25.6177 16.3859 25.6593 16.9427 25.6593 17.4529C25.6593 17.6797 25.713 17.9142 25.538 18.0852C25.3416 18.2772 25.0536 18.333 24.8507 18.5199C24.6129 18.7391 24.3536 18.9268 24.123 19.1523C23.5993 19.6641 23.6378 20.1305 23.6378 20.8122Z" fill="#805536"/>
<path d="M41.6102 26.8048C24.348 24.9813 22.6556 21.064 23.9672 19.3333C19.3978 20.9795 19.0172 23.259 19.271 23.5123C20.9211 31.1105 60.0149 34.2764 85.1466 34.1498C110.278 34.0232 126.398 32.5035 141.503 29.8441C153.586 27.7166 155.211 24.3987 155.338 23.0057C153.713 19.9664 151.784 19.7132 151.022 19.9664C151.149 23.1324 149.753 22.6258 140.741 25.5385C133.531 27.8686 99.574 28.7888 83.4964 28.9577C76.7269 28.9999 58.8724 28.6284 41.6102 26.8048Z" fill="#E9BC84"/>
</svg>
