<svg width="67" height="91" viewBox="0 0 67 91" fill="none" xmlns="http://www.w3.org/2000/svg">
<path d="M66.0166 0.316587L51.3043 22.5554L50.5075 22.0072L66.0166 0.316587Z" fill="#FCBFBF"/>
<rect x="37.8577" y="34.6346" width="17.5911" height="7.64625" rx="3.82313" transform="rotate(-55.7381 37.8577 34.6346)" fill="#FCBFBF"/>
<path d="M33.0708 30.1408L10.0779 63.9711L26.9756 75.6556L49.4857 42.3148C54.1205 34.9737 49.4857 29.4678 46.589 27.6326C39.3954 23.7663 34.5796 27.6937 33.0708 30.1408Z" fill="#FFDBDB"/>
<path d="M34.9081 31.5207L17.1707 57.2962L30.206 66.1987L47.571 40.7962C51.1464 35.2029 47.571 31.008 45.3364 29.6097C39.787 26.664 36.0719 29.6563 34.9081 31.5207Z" fill="#FCBFBF"/>
<rect x="7.59204" y="62.0612" width="26.7556" height="3.19079" rx="1.59539" transform="rotate(34.1221 7.59204 62.0612)" fill="#FCBFBF"/>
<path d="M20.1258 73.3946L14.7852 69.7451L6.53149 81.9305L11.8721 85.7037L20.1258 73.3946Z" fill="#FCBFBF"/>
<rect x="1.76782" y="78.5981" width="17.5911" height="3.19079" rx="1.59539" transform="rotate(33.6422 1.76782 78.5981)" fill="#FCBFBF"/>
</svg>
