<svg width="110" height="89" viewBox="0 0 110 89" fill="none" xmlns="http://www.w3.org/2000/svg">
<path d="M69.2744 1.6438L0 2.34828V83.5989L69.2744 88.7652V1.6438Z" fill="#91BBB4"/>
<path d="M109.195 0.469482L69.2744 1.64362V88.765L109.195 79.137V0.469482Z" fill="#477B72"/>
<path d="M69.2744 5.16623H0V0H69.2744V5.16623Z" fill="#7CAFA7"/>
<path d="M109.195 0H69.2744V5.16623L109.195 4.69657V0Z" fill="#3D6F67"/>
<path d="M69.2744 88.9999L0 84.773V79.8416L69.2744 83.8336V88.9999Z" fill="#7CAFA7"/>
<path d="M109.43 76.3193L69.5093 83.8338V89.0001L109.43 81.0159V76.3193Z" fill="#3D6F67"/>
<mask id="mask0" mask-type="alpha" maskUnits="userSpaceOnUse" x="13" y="27" width="44" height="51">
<path d="M33.799 27.1177C12.6635 26.6481 12.5251 58.3636 13.3861 74.7234L55.8902 77.3065C60.1162 24.0005 34.585 27.5107 33.799 27.1177Z" fill="#FB9B9B"/>
</mask>
<g mask="url(#mask0)">
<path d="M33.799 26.7248C12.6635 26.2552 12.5251 58.3637 13.3861 74.7234L55.8902 77.3066C60.1162 24.0006 34.7384 26.7248 33.799 26.7248Z" fill="#477B72"/>
<path d="M47.9472 59.3447C32.9959 60.796 24.6528 62.5394 9.82503 66.8119L8.646 69.17V77.0302L59.7375 79.7813L103.362 59.3447H47.9472Z" fill="#2D6057"/>
<path d="M12.321 66.812C12.321 66.812 24.218 68.217 26.8589 67.5145C29.4998 66.812 34.9998 71.188 38.4998 69C41.9998 66.812 47.4998 71 49.9998 70C52.4999 69 62.5679 69.24 62.5679 69.24L62.0367 80.2315L11.7899 77.8035L12.321 66.812Z" fill="#477B72"/>
</g>
</svg>
