<svg width="60" height="55" viewBox="0 0 60 55" fill="none" xmlns="http://www.w3.org/2000/svg">
<path d="M45.3369 24.2134C44.4988 26.044 44.0798 27.8746 44.0798 29.7051C44.0798 31.6189 44.5826 33.2831 45.5883 34.6976C46.5939 36.1121 48.0185 36.7778 49.8622 36.7778C51.7058 36.7778 53.3819 36.1121 54.9741 34.7808C56.5664 33.4495 57.7396 31.8685 58.5776 30.038C59.4156 28.2074 59.8347 26.3768 59.8347 24.6295C59.8347 22.7157 59.3318 21.0516 58.3262 19.637C57.3206 18.2225 55.896 17.4736 54.0523 17.4736C52.2087 17.4736 50.5326 18.1393 48.9404 19.4706C47.4319 20.7187 46.1749 22.2997 45.3369 24.2134Z" fill="#FCBFBF"/>
<path d="M4.86053 34.7806C6.45277 36.112 8.12882 36.7776 9.97247 36.7776C11.8161 36.7776 13.2408 36.112 14.2464 34.6974C15.252 33.2829 15.7548 31.6188 15.7548 29.705C15.7548 27.9576 15.3358 26.1271 14.4978 24.2133C13.6598 22.3827 12.4865 20.7186 10.8943 19.3872C9.30205 18.0559 7.62601 17.3903 5.78236 17.3903C3.93871 17.3903 2.51407 18.1391 1.50844 19.5537C0.502814 20.9682 0 22.6323 0 24.5461C0 26.2935 0.419011 28.124 1.25703 29.9546C2.09506 31.8684 3.26829 33.4493 4.86053 34.7806Z" fill="#FCBFBF"/>
<path d="M34.7778 19.7202C35.8672 20.6355 37.1243 21.1347 38.5489 21.1347C40.3925 21.1347 42.0686 20.4691 43.4932 19.0546C45.0017 17.7232 46.0911 16.0591 46.8453 14.2285C47.5995 12.398 47.9347 10.5674 47.9347 8.82008C47.9347 7.40556 47.6833 6.07425 47.2643 4.74293C46.8453 3.49482 46.0911 2.32992 45.0017 1.41464C43.9122 0.499366 42.6552 0.00012207 41.2306 0.00012207C39.3869 0.00012207 37.7109 0.665779 36.2024 2.0803C34.694 3.41162 33.6046 5.07576 32.9342 6.90632C32.1799 8.73688 31.8447 10.5674 31.8447 12.3148C31.8447 13.7293 32.0961 15.0606 32.5151 16.3919C32.9342 17.7232 33.6884 18.8049 34.7778 19.7202Z" fill="#FCBFBF"/>
<path d="M16.3414 19.0546C17.8498 20.3859 19.5259 21.1347 21.2857 21.1347C22.7104 21.1347 24.0512 20.6355 25.0568 19.7202C26.1463 18.8049 26.9005 17.7232 27.3195 16.3919C27.7385 15.1438 27.9899 13.7293 27.9899 12.3148C27.9899 10.5674 27.6547 8.73688 26.9005 6.90632C26.1463 5.07576 25.0568 3.41162 23.6322 2.0803C22.1238 0.748987 20.5315 0.00012207 18.6041 0.00012207C17.1794 0.00012207 15.8386 0.499366 14.833 1.41464C13.7435 2.32992 12.9893 3.41162 12.5703 4.74293C12.1513 5.99104 11.8999 7.40556 11.8999 8.82008C11.8999 10.5674 12.2351 12.398 12.9893 14.2285C13.7435 16.0591 14.833 17.7232 16.3414 19.0546Z" fill="#FCBFBF"/>
<path d="M16.2576 36.0289C14.2464 38.109 12.5703 40.3556 11.2295 42.9351C9.88868 45.4313 9.21826 47.7611 9.21826 49.758C9.21826 53.2527 11.3971 55.0001 15.8386 55.0001C17.5985 55.0001 20.0287 54.5008 23.0456 53.4191C26.0625 52.3374 28.4089 51.8382 30.0012 51.8382C31.5096 51.8382 33.6885 52.3374 36.5378 53.4191C39.387 54.5008 41.6497 55.0001 43.3257 55.0001C44.3313 55.0001 45.2532 54.9169 46.0912 54.8336C46.8454 54.6672 47.6834 54.5008 48.4376 54.0848C49.1919 53.752 49.7785 53.1695 50.1975 52.5039C50.6165 51.755 50.7841 50.8397 50.7841 49.758C50.7841 47.0122 49.6947 44.0167 47.432 40.6885C45.2532 37.3602 42.4877 34.5311 39.2194 32.2014C35.9511 29.8716 32.8505 28.7067 30.0012 28.7067C27.9061 28.7067 25.5597 29.3723 23.0456 30.7868C20.4477 32.2014 18.1851 33.9487 16.2576 36.0289Z" fill="#FCBFBF"/>
</svg>
