<svg width="66" height="67" viewBox="0 0 66 67" fill="none" xmlns="http://www.w3.org/2000/svg">
<circle cx="21.7055" cy="23.4157" r="19.141" fill="white" fill-opacity="0.55"/>
<path d="M9.91678 16.5836C7.25279 23.662 6.7792 37.5891 26.1967 36.6708C19.9807 36.0969 8.02239 31.276 9.91678 16.5836Z" fill="#FCF1E2"/>
<path d="M40.7282 46.1759C41.852 46.1759 42.9759 45.738 43.8341 44.8624C45.5484 43.1123 45.5473 40.2761 43.8319 38.5282L42.5446 37.2159C40.8303 35.4692 38.0503 35.4681 36.336 37.2193C34.6217 38.9694 34.6228 41.8056 36.3382 43.5535L37.6256 44.8658C38.4827 45.7392 39.6055 46.1759 40.7282 46.1759Z" fill="#FCBFBF"/>
<path d="M61.6095 66.6824C62.7333 66.6824 63.8561 66.2533 64.7143 65.3962C66.4286 63.6819 66.4286 60.9019 64.7143 59.1887L47.8273 42.3027C46.1119 40.5873 43.333 40.5884 41.6188 42.3027C39.9045 44.017 39.9045 46.797 41.6188 48.5101L58.5058 65.3972C59.3629 66.2544 60.4868 66.6824 61.6095 66.6824Z" fill="#FCBFBF"/>
<path d="M22.8235 45.6446C35.4062 45.6446 45.6436 35.4062 45.6436 22.8213C45.6436 10.2375 35.4062 0.00012207 22.8235 0.00012207C10.2386 0.00012207 9.53674e-05 10.2375 9.53674e-05 22.8213C9.53674e-05 35.4062 10.2386 45.6446 22.8235 45.6446ZM22.8235 5.48866C32.3804 5.48866 40.1561 13.2644 40.1561 22.8224C40.1561 32.3815 32.3804 40.1583 22.8235 40.1583C13.2643 40.1583 5.48754 32.3815 5.48754 22.8224C5.48754 13.2633 13.2643 5.48866 22.8235 5.48866Z" fill="#FFDBDB"/>
</svg>
