<svg width="70" height="81" viewBox="0 0 70 81" fill="none" xmlns="http://www.w3.org/2000/svg">
<path d="M4.09403 36.4032L4.09185 36.382L4.0893 36.3609C3.64685 32.6901 2.90529 24.5854 2.94488 17.8008C2.94815 17.2407 3.48401 16.336 4.91815 15.774C8.16 14.5035 11.7471 11.6922 12.5441 6.44361C12.6474 5.76291 12.901 5.1718 13.2143 4.76956C13.5108 4.38885 13.8153 4.22318 14.1196 4.17491C23.4371 2.69676 40.099 1.35172 55.1805 4.04893C55.4884 4.10399 55.8281 4.29113 56.1754 4.75262C56.5361 5.23191 56.8254 5.91612 56.9656 6.67422C57.6156 10.1889 59.8631 14.0778 65.086 15.8555C66.4001 16.3027 66.9353 17.211 66.9225 17.8403C66.8062 23.5447 66.5133 31.7354 65.9382 36.351C65.0443 43.5263 61.9765 66.7874 35.375 78.1701C35.0764 78.2979 34.7934 78.2967 34.5855 78.2258C24.9563 74.9402 6.80973 62.6943 4.09403 36.4032Z" fill="#FCBFBF" stroke="#FFDBDB" stroke-width="5"/>
</svg>
