<svg width="40" height="85" viewBox="0 0 40 85" fill="none" xmlns="http://www.w3.org/2000/svg">
<path d="M36.3913 26.6383C29.4702 21.7549 27.3029 13.3718 27.0845 9.79064C27.9234 9.20464 30.6674 9.62786 31.9345 9.91273C30.7548 15.0403 37.9642 25.1732 38.3575 25.7837C38.6721 26.272 38.4886 26.7196 38.3575 26.8824C37.5186 27.2731 36.6971 26.8824 36.3913 26.6383Z" fill="#FCBFBF"/>
<mask id="mask0" mask-type="alpha" maskUnits="userSpaceOnUse" x="0" y="23" width="40" height="62">
<path d="M21.328 23.8261H8.12819C-5.87006 58.2819 1.84256 73.0628 4.73396 78.2717C7.62536 83.4807 10.2234 83.646 12.5281 83.7287C18.6461 84.0181 31.737 84.4232 35.1563 83.7287C38.5757 83.0342 39.5982 79.9667 39.682 78.5198V63.1411C39.682 62.3556 39.4054 59.8917 38.2991 56.3199C37.1929 52.748 30.7983 49.3746 27.7393 48.1344C20.096 43.6696 20.2804 30.0685 21.328 23.8261Z" fill="#F8E4EB"/>
</mask>
<g mask="url(#mask0)">
<path d="M20.9795 23.8261H8.12819C-5.87006 58.2819 1.84256 73.0628 4.73396 78.2717C7.62536 83.4807 10.2234 83.646 12.5281 83.7287C18.6461 84.0181 31.737 84.4232 35.1563 83.7287C38.5757 83.0342 39.5982 79.9667 39.682 78.5198V63.1411C39.682 62.3556 39.4054 59.8917 38.2991 56.3199C37.1929 52.748 30.7983 49.3746 27.7393 48.1344C20.096 43.6696 19.9319 30.0685 20.9795 23.8261Z" fill="#FFE8E8"/>
<rect x="-0.763428" y="52.0613" width="43.4976" height="32.8139" fill="#FCBFBF"/>
</g>
<path d="M7.81714 13.8717V21.1841V21.7064H20.9867V14.7858C24.5334 11.6519 32.5481 11.826 36.1121 12.3048H37.9376V3.68669H36.1121C29.6447 0.343908 18.3789 -0.143582 13.5544 0.0305218C9.90341 0.335203 2.36677 1.88472 1.42795 5.64536C0.489134 9.40599 5.29624 12.6965 7.81714 13.8717Z" fill="#FFC6C6"/>
</svg>
