<svg width="265" height="98" viewBox="0 0 265 98" fill="none" xmlns="http://www.w3.org/2000/svg">
<path d="M69.2744 1.6438L0 2.34828V83.5989L69.2744 88.7652V1.6438Z" fill="#FAD4A5"/>
<path d="M108.921 0.469482L69 1.64362V88.765L108.921 79.137V0.469482Z" fill="#EEC28C"/>
<path d="M69.2744 5.16623H0V0H69.2744V5.16623Z" fill="#EEC28C"/>
<path d="M109.195 0H69.2744V5.16623L109.195 4.69657V0Z" fill="#C99F6B"/>
<path d="M69.2744 88.9999L0 84.773V79.8416L69.2744 84V88.9999Z" fill="#E8BC85"/>
<path d="M109.43 76.3193L69 84V89L109.43 81.0159V76.3193Z" fill="#C99F6B"/>
<mask id="mask0" mask-type="alpha" maskUnits="userSpaceOnUse" x="13" y="27" width="44" height="51">
<path d="M33.799 27.1177C12.6635 26.6481 12.5251 58.3636 13.3861 74.7234L55.8902 77.3065C60.1162 24.0005 34.585 27.5107 33.799 27.1177Z" fill="#FB9B9B"/>
</mask>
<g mask="url(#mask0)">
<path d="M33.799 26.7248C12.6635 26.2552 12.5251 58.3637 13.3861 74.7234L55.8902 77.3066C60.1162 24.0006 34.7384 26.7248 33.799 26.7248Z" fill="#C99F6B"/>
<path d="M47.9472 59.3447C32.9959 60.796 24.6528 62.5394 9.82503 66.8119L8.646 69.17V77.0302L59.7375 79.7813L103.362 59.3447H47.9472Z" fill="#E3B277"/>
<path d="M12.3212 66.812C12.3212 66.812 24.2183 68.217 26.8592 67.5145C29.5001 66.812 35 71.188 38.5001 69C42.0001 66.812 47.5 71 50.0001 70C52.5001 69 62.5681 69.24 62.5681 69.24L62.037 80.2315L11.7901 77.8035L12.3212 66.812Z" fill="#EEC28C"/>
</g>
<path d="M146 2L77 2.71968V85.7224L146 91V2Z" fill="#FAD4A5"/>
<path d="M186.195 0.469482L146 1.5V89L186 79L186.195 0.469482Z" fill="#EEC28C"/>
<path d="M146.274 5.16623H77V0H146.274V5.16623Z" fill="#EEC28C"/>
<path d="M186 0H146V5L186 4.54545V0Z" fill="#C99F6B"/>
<path d="M146 93L77 88.9314V84L146.274 87.9921L146 93Z" fill="#E8BC85"/>
<path d="M186 79L146 88V93L186 83.5V79Z" fill="#C99F6B"/>
<mask id="mask1" mask-type="alpha" maskUnits="userSpaceOnUse" x="90" y="27" width="44" height="51">
<path d="M110.799 27.1177C89.6635 26.6481 89.5251 58.3636 90.3861 74.7234L132.89 77.3065C137.116 24.0005 111.585 27.5107 110.799 27.1177Z" fill="#FB9B9B"/>
</mask>
<g mask="url(#mask1)">
<path d="M110.799 26.7248C89.6635 26.2552 89.5251 58.3637 90.3861 74.7234L132.89 77.3066C137.116 24.0006 111.738 26.7248 110.799 26.7248Z" fill="#C99F6B"/>
<path d="M124.947 59.3447C109.996 60.796 101.653 62.5394 86.825 66.8119L85.646 69.17V77.0302L136.737 79.7813L180.362 59.3447H124.947Z" fill="#E3B277"/>
<path d="M89.3212 66.812C89.3212 66.812 101.218 68.217 103.859 67.5145C106.5 66.812 112 71.188 115.5 69C119 66.812 124.5 71 127 70C129.5 69 139.568 69.24 139.568 69.24L139.037 80.2315L88.7901 77.8035L89.3212 66.812Z" fill="#EEC28C"/>
</g>
<path d="M224 4L155 4.71968V89.5L224 93V4Z" fill="#FAD4A5"/>
<path d="M264.195 2.46948L224 3.5V96L264 84L264.195 2.46948Z" fill="#EEC28C"/>
<path d="M224.274 5.16623H155V0H224.274V5.16623Z" fill="#EEC28C"/>
<path d="M264 0H224V5L264 4.54545V0Z" fill="#C99F6B"/>
<path d="M224 98L155 93.9314V89L224.274 92.9921L224 98Z" fill="#E8BC85"/>
<path d="M264 84L224 93V98L264 88.5V84Z" fill="#C99F6B"/>
<mask id="mask2" mask-type="alpha" maskUnits="userSpaceOnUse" x="168" y="29" width="44" height="51">
<path d="M188.799 29.1177C167.663 28.6481 167.525 60.3636 168.386 76.7234L210.89 79.3065C215.116 26.0005 189.585 29.5107 188.799 29.1177Z" fill="#FB9B9B"/>
</mask>
<g mask="url(#mask2)">
<path d="M188.799 28.7248C167.663 28.2552 167.525 60.3637 168.386 76.7234L210.89 79.3066C215.116 26.0006 189.738 28.7248 188.799 28.7248Z" fill="#C99F6B"/>
<path d="M202.947 61.3447C187.996 62.796 179.653 64.5394 164.825 68.8119L163.646 71.17V79.0302L214.737 81.7813L258.362 61.3447H202.947Z" fill="#E3B277"/>
<path d="M167.321 68.812C167.321 68.812 179.218 70.217 181.859 69.5145C184.5 68.812 190 73.188 193.5 71C197 68.812 202.5 73 205 72C207.5 71 217.568 71.24 217.568 71.24L217.037 82.2315L166.79 79.8035L167.321 68.812Z" fill="#EEC28C"/>
</g>
</svg>
